<svg width="18" height="17" viewBox="0 0 18 17" fill="none" xmlns="http://www.w3.org/2000/svg">
<path fill-rule="evenodd" clip-rule="evenodd" d="M2.54756 0.954712C2.05994 0.954712 1.59229 1.13282 1.24749 1.44987C0.902691 1.76691 0.708984 2.19691 0.708984 2.64528V14.4792C0.708984 14.9276 0.902691 15.3576 1.24749 15.6747C1.59229 15.9917 2.05994 16.1698 2.54756 16.1698H15.4176C15.9052 16.1698 16.3729 15.9917 16.7177 15.6747C17.0625 15.3576 17.2562 14.9276 17.2562 14.4792V2.64528C17.2562 2.19691 17.0625 1.76691 16.7177 1.44987C16.3729 1.13282 15.9052 0.954712 15.4176 0.954712H2.54756ZM13.5331 6.69925C13.7056 6.54076 13.8025 6.32575 13.8026 6.10152C13.8027 5.87729 13.7059 5.66221 13.5335 5.5036C13.3611 5.34499 13.1273 5.25584 12.8834 5.25576C12.6396 5.25568 12.4057 5.34468 12.2332 5.50318L7.68271 9.68733L5.7329 7.89449C5.64755 7.81595 5.54621 7.75364 5.43467 7.71112C5.32313 7.66859 5.20357 7.64669 5.08283 7.64665C4.83896 7.64657 4.60506 7.73557 4.43256 7.89406C4.26007 8.05256 4.16311 8.26757 4.16303 8.4918C4.16294 8.71603 4.25973 8.93111 4.4321 9.08972L6.9675 11.421C7.06141 11.5074 7.1729 11.5759 7.29562 11.6227C7.41834 11.6694 7.54987 11.6935 7.68271 11.6935C7.81554 11.6935 7.94708 11.6694 8.06979 11.6227C8.19251 11.5759 8.30401 11.5074 8.39791 11.421L13.5331 6.69925Z" fill="#34D173"/>
</svg>
