<svg width="269" height="251" viewBox="0 0 269 251" fill="none" xmlns="http://www.w3.org/2000/svg">
<path d="M232.719 228.345H234.716L239.062 222.282V218.281C239.062 218.281 242.145 218.094 241.783 223.304C241.421 228.514 241.813 227.188 241.813 227.188C241.813 227.188 248.354 227.188 248.897 227.772C249.294 228.181 249.481 234.682 249.54 238.204C249.583 239.054 249.34 239.895 248.85 240.591C248.36 241.288 247.651 241.8 246.836 242.047C246.607 242.109 246.371 242.14 246.135 242.14C244.499 242.14 236.165 240.814 236.165 240.814H232.719V228.345Z" fill="#3B7690"/>
<path d="M227.012 227.25L228.238 240.882H231.655V227.525L227.012 227.25Z" fill="#3B7690"/>
<path d="M130.793 23.3451L139.379 35.6104C139.599 35.9165 139.89 36.1647 140.227 36.3339C140.564 36.503 140.937 36.5881 141.314 36.5818C141.691 36.5754 142.061 36.478 142.392 36.2976C142.723 36.1173 143.006 35.8594 143.216 35.5461L151.527 22.7786L130.793 23.3451Z" fill="#3B7690"/>
<path d="M152.567 2.79248H128.463C124.734 2.79248 121.711 5.81534 121.711 9.54422V23.3923C121.711 27.1212 124.734 30.144 128.463 30.144H152.567C156.296 30.144 159.319 27.1212 159.319 23.3923V9.54422C159.319 5.81534 156.296 2.79248 152.567 2.79248Z" fill="#3B7690"/>
<path d="M147.882 13.9542C146.673 11.7523 144.676 11.4077 143.332 11.9099C142.385 12.3241 141.603 13.0438 141.113 13.9542C140.622 13.0438 139.841 12.3241 138.893 11.9099C137.55 11.4077 135.552 11.7523 134.349 13.9542C131.838 18.5332 141.113 24.5373 141.113 24.5373C141.113 24.5373 150.393 18.5332 147.882 13.9542Z" fill="white"/>
<path d="M36.5193 214.724H56.3248C58.4392 214.724 60.467 215.564 61.9622 217.059C63.4573 218.555 64.2972 220.582 64.2972 222.697V232.754C64.2972 234.869 63.4573 236.897 61.9622 238.392C60.467 239.887 58.4392 240.727 56.3248 240.727H51.15L47.5055 245.937C47.2991 246.232 47.0234 246.473 46.7025 246.637C46.3815 246.801 46.0252 246.884 45.6648 246.878C45.3043 246.872 44.9508 246.778 44.6353 246.604C44.3198 246.429 44.0519 246.18 43.8551 245.878L40.5026 240.727H36.5193C34.4049 240.727 32.3771 239.887 30.8819 238.392C29.3868 236.897 28.5469 234.869 28.5469 232.754V222.697C28.5469 220.582 29.3868 218.555 30.8819 217.059C32.3771 215.564 34.4049 214.724 36.5193 214.724Z" fill="#3B7690"/>
<path d="M45.7166 222.715V232.971L38.375 227.843L45.7166 222.715Z" fill="white"/>
<path d="M55.5439 233.775C55.5439 233.775 55.0591 226.492 49.2302 226.381H45.5039V229.512L49.1776 229.564C49.1776 229.564 52.9916 229.477 55.5439 233.775Z" fill="white"/>
<path d="M48.4603 107.347C49.1289 104.525 47.3834 101.696 44.5617 101.027C41.7399 100.359 38.9104 102.104 38.2418 104.926C37.5733 107.748 39.3187 110.577 42.1405 111.246C44.9623 111.914 47.7917 110.169 48.4603 107.347Z" fill="#3B7690"/>
<path d="M43.352 110.767C40.9712 110.767 38.6878 111.713 37.0043 113.397C35.3208 115.08 34.375 117.363 34.375 119.744H52.329C52.329 117.363 51.3832 115.08 49.6997 113.397C48.0162 111.713 45.7329 110.767 43.352 110.767Z" fill="#3B7690"/>
<path d="M190.391 7.50451C190.391 8.22649 190.177 8.93225 189.775 9.53255C189.374 10.1329 188.804 10.6007 188.137 10.877C187.47 11.1533 186.736 11.2256 186.028 11.0847C185.32 10.9439 184.67 10.5962 184.159 10.0857C183.649 9.5752 183.301 8.92477 183.16 8.21666C183.019 7.50856 183.091 6.77459 183.368 6.10757C183.644 5.44055 184.112 4.87044 184.712 4.46933C185.312 4.06822 186.018 3.85413 186.74 3.85413C187.22 3.85336 187.695 3.94726 188.138 4.13043C188.581 4.31361 188.984 4.58247 189.323 4.92159C189.662 5.26071 189.931 5.66343 190.114 6.10666C190.297 6.54989 190.391 7.02492 190.391 7.50451Z" fill="#3B7690"/>
<path d="M200.52 16.0503C200.52 16.7723 200.305 17.478 199.904 18.0783C199.503 18.6786 198.933 19.1465 198.266 19.4228C197.599 19.6991 196.865 19.7714 196.157 19.6305C195.449 19.4897 194.798 19.142 194.288 18.6315C193.777 18.121 193.43 17.4705 193.289 16.7624C193.148 16.0543 193.22 15.3204 193.497 14.6533C193.773 13.9863 194.241 13.4162 194.841 13.0151C195.441 12.614 196.147 12.3999 196.869 12.3999C197.837 12.3999 198.766 12.7845 199.45 13.4691C200.135 14.1537 200.52 15.0821 200.52 16.0503Z" fill="#3B7690"/>
<path d="M190.449 24.7641C190.449 25.4861 190.235 26.1919 189.834 26.7922C189.433 27.3925 188.863 27.8604 188.196 28.1367C187.529 28.4129 186.795 28.4852 186.087 28.3444C185.379 28.2035 184.728 27.8559 184.218 27.3454C183.707 26.8348 183.359 26.1844 183.219 25.4763C183.078 24.7682 183.15 24.0342 183.426 23.3672C183.703 22.7002 184.17 22.1301 184.771 21.729C185.371 21.3279 186.077 21.1138 186.799 21.1138C187.767 21.1138 188.695 21.4984 189.38 22.1829C190.065 22.8675 190.449 23.796 190.449 24.7641Z" fill="#3B7690"/>
<path d="M186.993 24.9852L186.607 24.5413L196.419 16.0549L186.555 7.73207L186.928 7.28235L197.319 16.0491L186.993 24.9852Z" fill="#3B7690"/>
<path d="M253.38 93.1462C251.803 90.261 249.187 89.8171 247.435 90.4712C246.189 91.0109 245.161 91.9528 244.514 93.1462C243.868 91.9528 242.839 91.0109 241.594 90.4712C239.842 89.8171 237.225 90.261 235.648 93.1462C232.389 99.1329 244.561 106.988 244.561 106.988C244.561 106.988 256.669 99.1329 253.38 93.1462Z" fill="#3B7690"/>
<path d="M239.026 121.181C237.899 119.125 236.042 118.81 234.786 119.277C233.904 119.664 233.176 120.334 232.719 121.181C232.261 120.334 231.533 119.664 230.651 119.277C229.401 118.81 227.538 119.125 226.416 121.181C224.08 125.462 232.719 131.04 232.719 131.04C232.719 131.04 241.368 125.462 239.026 121.181Z" fill="#3B7690"/>
<path d="M248.505 21.6573H209.56C207.267 21.6573 205.068 22.5679 203.446 24.1888C201.824 25.8097 200.912 28.0084 200.91 30.3014V53.9092C200.91 55.0448 201.134 56.1693 201.569 57.2185C202.003 58.2676 202.641 59.2208 203.444 60.0235C204.247 60.8263 205.201 61.4629 206.25 61.897C207.3 62.331 208.424 62.554 209.56 62.5533H221.598L228.343 72.2078C228.558 72.5115 228.843 72.7582 229.174 72.9264C229.505 73.0946 229.873 73.1792 230.244 73.1729C230.616 73.1666 230.98 73.0695 231.305 72.89C231.631 72.7106 231.907 72.4543 232.111 72.1435L238.348 62.5533H248.505C249.641 62.554 250.765 62.331 251.814 61.8968C252.863 61.4627 253.816 60.826 254.619 60.0232C255.422 59.2204 256.059 58.2671 256.493 57.218C256.927 56.1689 257.15 55.0446 257.149 53.9092V30.3014C257.149 29.1663 256.926 28.0422 256.491 26.9935C256.057 25.9447 255.42 24.9918 254.618 24.1891C253.815 23.3865 252.862 22.7498 251.813 22.3153C250.764 21.8809 249.64 21.6573 248.505 21.6573Z" fill="white"/>
<path d="M248.504 21.6579H248.796C249.083 21.6598 249.37 21.6793 249.654 21.7163C250.768 21.8445 251.844 22.2004 252.814 22.7618C254.097 23.4887 255.174 24.5301 255.943 25.7879C256.712 27.0456 257.149 28.4785 257.212 29.9516C257.247 31.1606 257.212 32.4338 257.212 33.7772C257.212 39.1622 257.212 45.657 257.247 53.0512C257.283 53.9969 257.208 54.9436 257.025 55.8722C256.811 56.8289 256.433 57.7417 255.91 58.5705C254.817 60.3102 253.152 61.6152 251.202 62.2618C250.195 62.5741 249.144 62.722 248.089 62.6998H238.347L238.464 62.6356L234.895 68.1258L233.055 70.9585C232.734 71.4374 232.471 71.9105 232.103 72.3953C231.721 72.8851 231.164 73.2091 230.55 73.3006C229.932 73.3844 229.305 73.2298 228.798 72.8683C228.548 72.6853 228.333 72.46 228.161 72.2025L227.659 71.4783L225.626 68.558L221.473 62.6298L221.602 62.694H210.102C209.283 62.7165 208.464 62.6479 207.66 62.4896C206.862 62.3066 206.091 62.0219 205.365 61.6427C203.95 60.873 202.772 59.731 201.958 58.3403C201.145 56.9495 200.728 55.3629 200.751 53.752C200.751 47.5552 200.751 41.5802 200.751 35.8856C200.751 34.4605 200.751 33.0588 200.751 31.6687C200.751 30.9737 200.751 30.2903 200.786 29.5953C200.815 29.2504 200.861 28.9073 200.926 28.5673C201.008 28.2286 201.084 27.8957 201.189 27.5686C201.62 26.2864 202.332 25.1169 203.274 24.146C204.208 23.2002 205.344 22.4792 206.597 22.0376C206.897 21.9258 207.203 21.8341 207.514 21.763C207.821 21.684 208.134 21.6274 208.449 21.5937C209.067 21.526 209.69 21.4987 210.312 21.5119H220.615L241.01 21.5645H246.553H247.996H248.486C248.486 21.5645 248.323 21.5645 247.996 21.5645H246.553H241.01L220.615 21.763H213.857H210.265C209.655 21.7493 209.044 21.7767 208.437 21.8448C208.13 21.8781 207.825 21.9347 207.526 22.0142C207.224 22.084 206.928 22.1738 206.638 22.2829C205.442 22.717 204.359 23.4135 203.467 24.3212C202.553 25.2626 201.864 26.3988 201.452 27.6445C201.347 27.9599 201.277 28.287 201.195 28.6141C201.113 28.9411 201.072 29.2741 201.06 29.607C201.014 30.2786 201.031 30.9737 201.031 31.6629V35.8798C201.031 41.5744 201.031 47.561 201.031 53.7462C201.01 55.3026 201.415 56.8352 202.201 58.1784C202.988 59.5217 204.126 60.6246 205.493 61.3682C206.192 61.7367 206.937 62.0116 207.707 62.1859C208.489 62.3435 209.287 62.4101 210.084 62.3845H221.643L221.689 62.4487L225.836 68.3769L227.869 71.2972L228.371 72.0156C228.529 72.2439 228.727 72.4418 228.955 72.5997C229.399 72.9253 229.953 73.0647 230.498 72.9884C231.044 72.912 231.538 72.6259 231.876 72.1908C232.191 71.7469 232.5 71.2447 232.81 70.7774C233.437 69.8273 234.052 68.8831 234.656 67.9447L238.236 62.4545L238.277 62.3903H248.118C249.145 62.4195 250.169 62.2794 251.15 61.9756C253.045 61.3556 254.663 60.0908 255.723 58.4012C256.236 57.5992 256.606 56.7137 256.815 55.7846C256.999 54.874 257.074 53.9445 257.037 53.0161C257.037 45.6278 257.037 39.133 257.072 33.7421C257.072 32.3988 257.072 31.1197 257.072 29.9224C257.024 28.8107 256.758 27.7192 256.289 26.71C255.551 25.0856 254.326 23.7305 252.785 22.8319C251.827 22.2652 250.764 21.8977 249.66 21.7514C249.378 21.7092 249.093 21.6819 248.807 21.6696L248.504 21.6579Z" fill="#263238"/>
<path d="M230.141 34.2213V50.3531L241.687 42.2872L230.141 34.2213Z" fill="#B1C8D3"/>
<path d="M214.688 51.6257C214.688 51.6257 215.453 40.1664 224.617 39.9912H230.457V44.9207L224.681 45.0025C224.681 45.0025 218.659 44.8623 214.688 51.6257Z" fill="#B1C8D3"/>
<path d="M195.858 205.339H262.201C265.898 205.339 268.895 202.342 268.895 198.646V147.295C268.895 143.598 265.898 140.602 262.201 140.602H195.858C192.161 140.602 189.164 143.598 189.164 147.295V198.646C189.164 202.342 192.161 205.339 195.858 205.339Z" fill="white"/>
<path d="M225.824 203.359C225.006 205.339 209.195 220.203 209.195 220.203V203.359H225.824Z" fill="#455A64"/>
<path d="M219.703 189.803C219.703 187.759 219.703 186.053 219.703 185.843C219.703 185.843 212.794 185.189 212.297 178.349C212.058 175.044 212.116 168.187 212.245 161.996C212.311 158.785 213.584 155.717 215.81 153.403C218.037 151.089 221.053 149.699 224.259 149.508L224.919 149.468C232.073 149.468 236.074 155.524 235.887 162.673L235.636 189.499L224.072 198.791L223.231 198.716L219.703 189.803Z" fill="#FFBF9D"/>
<path d="M219.691 185.842C222.855 185.644 225.895 184.544 228.452 182.671C228.452 182.671 226.577 187.805 219.691 187.6V185.842Z" fill="#FF9A6C"/>
<path d="M223.884 164.945C224.019 165.085 224.813 164.46 225.958 164.443C227.103 164.425 227.955 164.997 228.078 164.851C228.201 164.705 227.996 164.536 227.628 164.267C227.132 163.923 226.539 163.746 225.935 163.759C225.335 163.77 224.755 163.975 224.282 164.343C223.931 164.624 223.82 164.881 223.884 164.945Z" fill="#263238"/>
<path d="M224.73 168.051C224.741 168.292 224.846 168.519 225.024 168.683C225.201 168.847 225.435 168.935 225.677 168.927C225.795 168.93 225.913 168.91 226.023 168.866C226.133 168.823 226.233 168.758 226.318 168.675C226.402 168.592 226.469 168.493 226.514 168.384C226.56 168.275 226.583 168.158 226.582 168.039C226.57 167.798 226.464 167.571 226.288 167.407C226.111 167.242 225.877 167.153 225.636 167.157C225.517 167.155 225.399 167.176 225.289 167.22C225.179 167.264 225.079 167.33 224.995 167.413C224.91 167.497 224.843 167.596 224.798 167.705C224.753 167.815 224.73 167.932 224.73 168.051Z" fill="#263238"/>
<path d="M220.913 172.872C220.34 172.73 219.751 172.662 219.161 172.667C218.892 172.667 218.635 172.621 218.576 172.44C218.538 172.162 218.585 171.878 218.711 171.628C218.921 170.968 219.143 170.267 219.382 169.537C220.311 166.558 220.965 164.111 220.843 164.076C220.72 164.041 219.873 166.412 218.944 169.408C218.722 170.138 218.506 170.839 218.308 171.511C218.158 171.845 218.131 172.222 218.232 172.574C218.276 172.666 218.34 172.748 218.42 172.811C218.5 172.875 218.593 172.92 218.693 172.942C218.845 172.972 219 172.984 219.155 172.977C219.743 173.022 220.334 172.987 220.913 172.872Z" fill="#263238"/>
<path d="M224.452 161.266C224.563 161.523 225.48 161.342 226.578 161.418C227.676 161.494 228.576 161.739 228.704 161.494C228.763 161.383 228.593 161.143 228.225 160.91C227.737 160.629 227.19 160.467 226.628 160.436C226.066 160.406 225.505 160.508 224.99 160.734C224.598 160.927 224.405 161.149 224.452 161.266Z" fill="#263238"/>
<path d="M213.712 161.92C213.829 162.13 214.729 161.92 215.809 161.891C216.89 161.861 217.789 162.019 217.906 161.803C217.958 161.704 217.783 161.517 217.409 161.347C216.903 161.137 216.357 161.04 215.809 161.061C215.255 161.07 214.709 161.197 214.209 161.435C213.835 161.628 213.66 161.821 213.712 161.92Z" fill="#263238"/>
<path d="M235.625 167.773C235.736 167.714 240.245 166.096 240.379 170.786C240.514 175.476 235.771 174.641 235.759 174.507C235.748 174.373 235.625 167.773 235.625 167.773Z" fill="#FFBF9D"/>
<path d="M237.141 172.691C237.141 172.691 237.223 172.749 237.363 172.808C237.56 172.887 237.78 172.887 237.976 172.808C238.467 172.609 238.858 171.815 238.858 170.968C238.86 170.564 238.773 170.165 238.601 169.8C238.552 169.654 238.469 169.522 238.358 169.415C238.247 169.308 238.112 169.23 237.965 169.186C237.87 169.164 237.771 169.175 237.684 169.219C237.597 169.263 237.529 169.336 237.492 169.426C237.433 169.56 237.492 169.648 237.439 169.659C237.387 169.671 237.334 169.584 237.369 169.391C237.393 169.273 237.454 169.166 237.544 169.087C237.606 169.036 237.678 168.998 237.756 168.976C237.833 168.954 237.914 168.948 237.994 168.959C238.187 168.992 238.369 169.074 238.522 169.197C238.675 169.319 238.795 169.478 238.87 169.659C239.078 170.062 239.186 170.509 239.185 170.962C239.185 171.908 238.724 172.802 238.052 173.018C237.927 173.059 237.795 173.071 237.664 173.054C237.534 173.037 237.409 172.991 237.299 172.919C237.153 172.802 237.124 172.726 237.141 172.691Z" fill="#FF9A6C"/>
<path d="M222.365 176.86C222.313 176.743 223.236 176.48 223.896 175.621C224.171 175.248 224.395 174.839 224.562 174.407C224.702 174.068 224.807 173.858 224.859 173.875C224.912 173.893 224.889 174.12 224.813 174.459C224.706 174.954 224.492 175.421 224.188 175.826C223.874 176.229 223.456 176.54 222.979 176.725C222.617 176.895 222.365 176.9 222.365 176.86Z" fill="#263238"/>
<path d="M241.955 160.261C240.997 158.591 240.787 156.616 240.285 154.765C239.782 152.913 238.772 150.986 236.973 150.32H236.932C235.314 149.643 233.311 149.608 231.962 150.723C231.664 148.282 229.555 146.319 227.184 145.665C224.813 145.011 220.993 145.338 218.698 146.249C216.946 146.933 215.193 148.369 213.102 150.478C212.217 151.367 211.404 152.326 210.673 153.346L208.523 159.7L210.276 163.07C210.381 163.304 210.486 163.532 210.614 163.759L212.121 170.838C212.25 168.917 212.197 162.218 212.32 160.296C213.768 160.271 215.196 159.954 216.519 159.364C217.842 158.774 219.032 157.923 220.018 156.862C221.081 155.694 221.928 154.263 223.341 153.585C225.169 152.709 227.319 153.392 229.223 154.076L229.141 154.006C230.132 154.479 231.023 155.139 231.763 155.951C231.284 159.749 231.629 163.605 232.774 167.258C232.949 167.807 233.422 168.94 233.942 169.15C234.993 169.571 235.291 168.502 235.928 167.941C236.493 167.564 237.176 167.406 237.849 167.497C238.398 165.909 238.848 164.288 239.198 162.644C239.833 162.85 240.507 162.904 241.167 162.802L240.583 161.347C240.831 161.534 241.115 161.668 241.418 161.739C241.57 161.77 241.728 161.754 241.871 161.694C242.013 161.633 242.135 161.531 242.218 161.4C242.393 161.044 242.154 160.606 241.955 160.261Z" fill="#263238"/>
<path d="M229.801 151.494C230.044 151.688 230.27 151.901 230.478 152.131C231.01 152.791 231.362 153.578 231.5 154.414C231.611 154.992 231.662 155.579 231.652 156.167C231.652 156.797 231.588 157.469 231.53 158.182C231.457 158.927 231.43 159.676 231.448 160.424C231.47 160.816 231.516 161.207 231.588 161.593C231.641 162.015 231.802 162.418 232.055 162.761C232.173 162.895 232.324 162.996 232.493 163.056C232.662 163.115 232.843 163.13 233.019 163.099C233.355 163.039 233.663 162.871 233.895 162.621C234.274 162.108 234.508 161.502 234.573 160.868H234.432C234.631 161.386 234.905 161.872 235.244 162.311C235.571 162.72 236.045 162.986 236.564 163.053C236.805 163.082 237.05 163.043 237.271 162.942C237.475 162.837 237.643 162.674 237.756 162.474C237.857 162.296 237.909 162.095 237.908 161.89C237.904 161.692 237.829 161.501 237.697 161.353L237.621 161.417C238.024 161.887 238.519 162.269 239.076 162.539C239.224 162.608 239.376 162.669 239.531 162.72C239.583 162.742 239.638 162.756 239.695 162.761L239.543 162.696C239.438 162.65 239.292 162.591 239.099 162.492C238.562 162.208 238.085 161.821 237.697 161.353L237.627 161.417C237.736 161.563 237.798 161.739 237.803 161.921C237.808 162.103 237.757 162.282 237.656 162.434C237.556 162.613 237.403 162.758 237.218 162.848C237.017 162.94 236.795 162.972 236.576 162.942C236.095 162.872 235.658 162.621 235.355 162.241C235.027 161.809 234.762 161.333 234.567 160.827L234.473 160.605L234.427 160.839C234.357 161.439 234.134 162.01 233.778 162.498C233.57 162.721 233.296 162.871 232.996 162.924C232.846 162.953 232.692 162.941 232.548 162.891C232.405 162.841 232.277 162.753 232.178 162.638C231.942 162.322 231.793 161.949 231.746 161.558C231.67 161.172 231.623 160.782 231.606 160.389C231.587 159.647 231.61 158.904 231.676 158.164C231.728 157.452 231.787 156.774 231.787 156.137C231.788 155.549 231.729 154.962 231.611 154.385C231.462 153.535 231.087 152.74 230.525 152.084C230.318 151.849 230.073 151.65 229.801 151.494Z" fill="#455A64"/>
<path d="M208.566 157.877C208.566 157.877 208.566 157.877 208.619 157.924L208.788 158.052C208.879 158.121 208.975 158.184 209.075 158.239C209.207 158.323 209.346 158.397 209.489 158.461C210.399 158.895 211.403 159.096 212.41 159.045C213.905 158.965 215.345 158.454 216.556 157.573C218.017 156.484 219.241 155.109 220.154 153.532C220.662 152.714 221.077 151.867 221.533 151.09C221.953 150.333 222.478 149.639 223.092 149.028C223.646 148.479 224.329 148.078 225.078 147.86C225.417 147.771 225.768 147.736 226.117 147.755C226.44 147.778 226.759 147.845 227.064 147.954C227.592 148.141 228.074 148.44 228.477 148.83C228.785 149.122 229.042 149.463 229.236 149.84C229.386 150.17 229.502 150.515 229.581 150.868C229.582 150.845 229.582 150.822 229.581 150.798C229.581 150.74 229.581 150.67 229.581 150.588C229.524 150.321 229.44 150.061 229.33 149.811C229.138 149.423 228.884 149.07 228.576 148.766C227.934 148.107 227.075 147.704 226.158 147.633C225.795 147.607 225.43 147.643 225.078 147.738C224.305 147.949 223.599 148.35 223.022 148.906C222.395 149.521 221.859 150.223 221.433 150.991C220.972 151.779 220.557 152.62 220.049 153.432C219.148 154.992 217.942 156.355 216.504 157.439C215.31 158.312 213.891 158.825 212.415 158.917C211.425 158.98 210.434 158.806 209.524 158.409C208.876 158.122 208.578 157.854 208.566 157.877Z" fill="#455A64"/>
<path d="M213.435 165.238C213.569 165.378 214.369 164.753 215.514 164.741C216.659 164.73 217.506 165.296 217.628 165.15C217.751 165.004 217.552 164.829 217.179 164.566C216.682 164.222 216.089 164.044 215.485 164.058C214.886 164.071 214.306 164.276 213.832 164.642C213.487 164.917 213.371 165.179 213.435 165.238Z" fill="#263238"/>
<path d="M215.188 168.21C215.2 168.451 215.305 168.678 215.482 168.843C215.658 169.008 215.892 169.097 216.134 169.092C216.252 169.094 216.37 169.073 216.48 169.029C216.59 168.985 216.691 168.92 216.775 168.836C216.859 168.753 216.926 168.654 216.971 168.544C217.017 168.435 217.04 168.317 217.039 168.198C217.027 167.958 216.921 167.731 216.744 167.568C216.568 167.404 216.334 167.316 216.093 167.322C215.975 167.319 215.857 167.34 215.747 167.383C215.637 167.426 215.536 167.491 215.452 167.574C215.367 167.657 215.301 167.756 215.255 167.865C215.21 167.975 215.187 168.092 215.188 168.21Z" fill="#263238"/>
<path d="M211.27 152.557C210.685 153.328 209.792 154.029 208.834 153.924C208.486 153.851 208.145 153.751 207.812 153.626C207.479 153.831 207.555 154.975 207.812 155.291C208.029 155.559 208.27 155.807 208.53 156.033C207.403 156.617 206.381 156.342 205.184 155.904C205.304 156.928 205.691 157.902 206.306 158.729C206.921 159.556 207.742 160.207 208.688 160.617C208.977 160.773 209.299 160.857 209.627 160.863C209.955 160.869 210.28 160.797 210.574 160.652C211.027 160.283 211.325 159.758 211.41 159.181C211.946 157.128 212.228 155.017 212.251 152.896L211.27 152.557Z" fill="#263238"/>
<path d="M204.052 197.524L204.175 197.366C209.653 191.566 219.74 189.627 219.74 189.627C219.74 189.627 220.359 193.424 226.013 193.85C231.666 194.276 235.801 188.494 235.801 188.494L243.394 189.569C243.394 189.569 247.191 190.019 249.55 191.409C254.877 194.539 257.727 205.338 257.727 205.338L199.555 205.578L204.052 197.524Z" fill="#455A64"/>
<path d="M198.729 140.601L198.321 140.63L197.818 140.665C197.62 140.665 197.392 140.73 197.129 140.77C195.59 141.033 194.14 141.675 192.912 142.639C192.017 143.338 191.254 144.19 190.658 145.157C189.94 146.316 189.481 147.617 189.314 148.971C189.236 149.731 189.209 150.496 189.233 151.26C189.233 152.049 189.233 152.872 189.233 153.713C189.233 155.407 189.233 157.218 189.233 159.098C189.233 166.691 189.233 175.849 189.262 186.31C189.262 188.926 189.262 191.621 189.262 194.393C189.262 195.082 189.262 195.783 189.303 196.472C189.355 197.169 189.48 197.858 189.677 198.528C190.099 199.892 190.826 201.143 191.803 202.184C192.79 203.264 194.022 204.091 195.395 204.597L195.914 204.784L196.452 204.924C196.813 205.013 197.18 205.08 197.55 205.122C198.301 205.194 199.056 205.221 199.81 205.204H209.307V205.338C209.307 210.04 209.307 215.057 209.307 220.203L209.067 220.098C211.528 217.761 214.026 215.367 216.561 212.914C219.084 210.437 221.666 207.926 224.124 205.239L224.171 205.192H258.239C258.864 205.192 259.483 205.192 260.091 205.157C261.91 205.004 263.646 204.324 265.085 203.201C266.525 202.078 267.606 200.56 268.198 198.832C268.573 197.703 268.749 196.517 268.717 195.328V191.706C268.717 182.157 268.717 172.941 268.717 164.162C268.717 159.778 268.717 155.495 268.717 151.313C268.759 150.289 268.696 149.264 268.531 148.252C268.321 147.271 267.963 146.327 267.468 145.455C266.978 144.595 266.353 143.819 265.616 143.159C264.901 142.501 264.085 141.963 263.198 141.565C262.329 141.166 261.403 140.904 260.453 140.788C259.511 140.708 258.565 140.681 257.62 140.706H252.078H241.658L210.218 140.659L201.667 140.63H210.218L241.658 140.584H252.078H257.62C258.577 140.559 259.534 140.586 260.488 140.665C261.462 140.783 262.412 141.051 263.303 141.46C264.215 141.867 265.056 142.419 265.791 143.095C266.547 143.767 267.19 144.556 267.695 145.431C268.203 146.328 268.571 147.297 268.788 148.305C268.962 149.333 269.028 150.376 268.986 151.418C268.986 155.576 268.986 159.859 268.986 164.267C268.986 173.028 268.986 182.262 268.986 191.812V195.409C269.019 196.638 268.84 197.863 268.455 199.031C267.828 200.781 266.713 202.314 265.241 203.449C263.768 204.584 262.001 205.272 260.149 205.432C259.513 205.479 258.888 205.479 258.269 205.473H224.27L224.381 205.426C221.905 208.118 219.323 210.63 216.789 213.106C214.254 215.583 211.742 217.972 209.283 220.29L209.038 220.518V220.185C209.038 215.04 209.038 210.023 209.038 205.321L209.178 205.461H199.833C199.067 205.483 198.301 205.456 197.538 205.379C197.159 205.339 196.784 205.268 196.417 205.169L195.862 205.029L195.324 204.836C193.915 204.313 192.65 203.462 191.633 202.354C190.637 201.278 189.894 199.993 189.46 198.592C189.259 197.905 189.131 197.198 189.081 196.484C189.028 195.771 189.046 195.076 189.046 194.387C189.046 191.615 189.046 188.92 189.046 186.304C189.046 175.843 189.046 166.674 189.075 159.092C189.075 157.194 189.075 155.401 189.075 153.707C189.075 152.866 189.075 152.043 189.075 151.254C189.054 150.484 189.083 149.714 189.163 148.947C189.325 147.694 189.733 146.485 190.363 145.389C190.993 144.294 191.834 143.333 192.836 142.564C194.08 141.599 195.546 140.964 197.1 140.718C197.363 140.683 197.591 140.636 197.795 140.624H198.297L198.729 140.601Z" fill="#263238"/>
<path d="M18.0853 78.5215L98.4345 78.5215C102.954 78.5215 106.617 74.858 106.617 70.3388L106.617 8.18307C106.617 3.66389 102.954 0.00037384 98.4345 0.00037384L18.0853 0.00037384C13.5661 0.00037384 9.90259 3.66389 9.90259 8.18307L9.90259 70.3388C9.90259 74.858 13.5661 78.5215 18.0853 78.5215Z" fill="white"/>
<path d="M54.3727 76.12C53.3798 78.5205 34.1992 96.5621 34.1992 96.5621V76.12H54.3727Z" fill="#455A64"/>
<path d="M77.8353 34.4605C77.882 30.3721 78.5303 26.2837 78.3726 22.1953C78.2149 18.1068 77.1344 13.8374 74.2842 10.9054C71.434 7.9734 66.4695 6.81696 63.1287 9.21745L62.4453 12.7218C63.7614 28.5187 65.0775 44.3136 66.3936 60.1066C66.5629 62.1801 66.7498 64.3177 67.696 66.1692C68.6422 68.0207 70.5346 69.5568 72.6138 69.4283C75.3297 69.2647 77.1169 66.508 77.958 63.9206C81.0243 54.4997 77.7127 44.337 77.8353 34.4605Z" fill="#263238"/>
<path d="M67.983 13.2229C67.4372 12.1824 66.7361 11.2312 65.9037 10.4019C65.482 9.99124 64.9732 9.68085 64.415 9.49379C63.8569 9.30673 63.2638 9.24781 62.6797 9.32139C62.4046 9.35551 62.1428 9.45923 61.919 9.62276C61.6952 9.78628 61.5168 10.0042 61.4006 10.2559C61.2196 10.7815 61.6051 11.4766 62.1599 11.424L62.2767 11.5233C63.5033 12.6097 64.7473 13.6726 66.0206 14.7064C66.3218 14.9879 66.6749 15.2081 67.0602 15.3547C67.258 15.4294 67.4731 15.446 67.68 15.4025C67.887 15.3591 68.0772 15.2574 68.2283 15.1094C68.6605 14.6071 68.3276 13.8128 67.983 13.2229Z" fill="#B1C8D3"/>
<path d="M70.2972 17.246C66.2087 12.2523 60.7361 9.38455 54.2881 9.27358C50.6552 9.21517 49.1483 9.96861 46.5317 10.6753C43.9061 11.3121 41.5883 12.8525 39.9844 15.0266C38.1329 17.6607 36.5735 20.6102 36.2231 23.8167C35.8726 27.0232 35.4988 30.3932 35.75 33.7165C36.0011 37.0398 36.9181 40.3398 38.8338 43.0206L47.2326 44.4749C51.87 44.6326 56.5776 44.7845 61.0865 43.7273C65.5955 42.6702 69.9993 40.223 72.4173 36.2805C75.7698 30.7553 74.3797 22.2339 70.2972 17.246Z" fill="#263238"/>
<path d="M47.1945 59.358C47.2529 56.4377 47.3522 52.7172 47.3522 52.7347C47.3522 52.7523 40.507 51.9813 38.5913 43.2029C37.651 38.8399 37.4757 31.6093 37.5225 25.681C37.5634 20.3544 42.1015 13.0945 48.6839 13.0712L51.6042 12.7324L62.7948 17.183C63.575 17.2233 64.3119 17.5546 64.86 18.1114C65.4081 18.6681 65.7278 19.4101 65.756 20.1909L66.1765 58.7798L59.0042 70.7588L46.1549 60.8298L47.1945 59.358Z" fill="#B56760"/>
<path d="M51.7769 41.153C51.7153 40.6974 51.4862 40.281 51.1345 39.9849C50.814 39.7084 50.4109 39.5458 49.9883 39.5225C49.5656 39.4993 49.1471 39.6167 48.7982 39.8564C48.4372 40.1337 48.157 40.5025 47.9865 40.9246C47.816 41.3467 47.7616 41.8067 47.8287 42.2569C48.0219 42.5265 48.2702 42.7518 48.5572 42.918C48.8442 43.0841 49.1633 43.1873 49.4933 43.2206H49.8028C50.3285 43.2088 50.8308 43.0004 51.2104 42.6365C51.4086 42.4465 51.5623 42.2149 51.6602 41.9584C51.7582 41.7018 51.798 41.4268 51.7769 41.153Z" fill="#8A4A43"/>
<path d="M41.082 32.5485C41.0942 32.8465 41.2239 33.1276 41.4429 33.3301C41.6618 33.5326 41.9521 33.6401 42.2502 33.629C42.3938 33.6314 42.5365 33.6052 42.6699 33.552C42.8034 33.4988 42.9249 33.4197 43.0276 33.3192C43.1303 33.2187 43.212 33.0988 43.268 32.9665C43.324 32.8343 43.3533 32.6922 43.354 32.5485C43.3333 32.2531 43.2011 31.9766 42.9843 31.7749C42.7674 31.5732 42.4821 31.4615 42.1859 31.4622C42.0418 31.4599 41.8986 31.4862 41.7648 31.5398C41.631 31.5933 41.5091 31.673 41.4064 31.7741C41.3036 31.8752 41.2221 31.9958 41.1664 32.1287C41.1107 32.2617 41.082 32.4044 41.082 32.5485Z" fill="#263238"/>
<path d="M39.5579 28.6481C39.7097 28.7882 40.5333 28.1049 41.7539 28.064C42.9746 28.0231 43.9091 28.5605 44.0318 28.4086C44.1544 28.2567 43.9325 28.0757 43.5295 27.8245C42.9803 27.486 42.3393 27.3267 41.6955 27.369C41.0555 27.399 40.4418 27.6322 39.9433 28.0348C39.5929 28.3093 39.4819 28.5838 39.5579 28.6481Z" fill="#263238"/>
<path d="M47.4057 38.2328C46.7495 38.0633 46.0742 37.9788 45.3965 37.9816C45.0811 37.9816 44.7833 37.9174 44.719 37.713C44.6725 37.3907 44.7276 37.062 44.8767 36.7726L45.6652 34.3488C46.7632 30.897 47.54 28.0643 47.4174 28.0234C47.2947 27.9825 46.2492 30.7393 45.1804 34.1969L44.4153 36.6383C44.2391 37.025 44.206 37.4618 44.3219 37.8707C44.3721 37.9786 44.4468 38.0734 44.5401 38.1474C44.6333 38.2215 44.7426 38.2727 44.8592 38.297C45.0334 38.3364 45.2122 38.3522 45.3907 38.3437C46.0643 38.3919 46.7414 38.3546 47.4057 38.2328Z" fill="#263238"/>
<path d="M47.3553 52.7358C51.5265 52.5676 55.5697 51.2475 59.0365 48.9219C59.0365 48.9219 56.2155 55.2297 47.3086 54.891L47.3553 52.7358Z" fill="#8A4A43"/>
<path d="M51.0467 38.8747C50.8481 38.8747 50.9182 40.2005 49.8377 41.2109C48.7571 42.2214 47.332 42.1454 47.332 42.3323C47.332 42.4199 47.6591 42.5718 48.2607 42.5601C49.037 42.524 49.7764 42.2183 50.3516 41.6957C50.9 41.1905 51.2343 40.4946 51.2861 39.7508C51.3036 39.1842 51.1401 38.863 51.0467 38.8747Z" fill="#263238"/>
<path d="M39.9721 24.3728C40.1941 24.659 41.1403 24.4078 42.2149 24.437C43.2896 24.4663 44.2358 24.7057 44.4577 24.437C44.557 24.2969 44.4227 24.0165 44.0314 23.7362C43.4892 23.3994 42.8654 23.217 42.2273 23.2088C41.5891 23.2006 40.9608 23.3668 40.4102 23.6895C40.013 23.9523 39.8728 24.2326 39.9721 24.3728Z" fill="#263238"/>
<path d="M54.9817 32.2346C54.9912 32.5312 54.884 32.8198 54.683 33.0382C54.4821 33.2567 54.2034 33.3875 53.907 33.4027C53.7642 33.4138 53.6207 33.3967 53.4846 33.3521C53.3485 33.3076 53.2226 33.2367 53.114 33.1433C53.0055 33.0499 52.9165 32.936 52.8521 32.8082C52.7877 32.6803 52.7492 32.5409 52.7389 32.3981C52.7293 32.1014 52.8365 31.8129 53.0375 31.5944C53.2385 31.376 53.5171 31.2451 53.8135 31.23C53.9563 31.2188 54.0998 31.236 54.2359 31.2805C54.372 31.325 54.4979 31.396 54.6065 31.4894C54.7151 31.5827 54.8041 31.6966 54.8685 31.8245C54.9329 31.9524 54.9713 32.0918 54.9817 32.2346Z" fill="#263238"/>
<path d="M56.0852 28.1741C55.945 28.3259 55.0747 27.701 53.854 27.7302C52.6334 27.7594 51.7456 28.3785 51.6054 28.2325C51.4652 28.0865 51.6813 27.8996 52.0668 27.6075C52.5901 27.2328 53.2163 27.0289 53.8599 27.0235C54.496 27.0131 55.1192 27.2031 55.6413 27.5666C56.0209 27.8412 56.1552 28.1098 56.0852 28.1741Z" fill="#263238"/>
<path d="M55.3274 24.2612C55.0938 24.5416 54.1593 24.2612 52.9912 24.2612C51.8231 24.2612 50.9003 24.4832 50.655 24.197C50.5557 24.0568 50.7017 23.7764 51.1164 23.5078C51.6861 23.1803 52.333 23.011 52.9901 23.0171C53.6472 23.0233 54.2908 23.2048 54.8543 23.5428C55.3274 23.8407 55.4559 24.121 55.3274 24.2612Z" fill="#263238"/>
<path d="M64.2669 35.0736C64.2319 34.4136 64.9036 32.8133 65.5519 32.6789C67.3041 32.311 70.4171 32.2818 70.6858 36.6914C71.0596 42.7248 64.9269 41.8545 64.9036 41.6852C64.8802 41.5158 64.3838 37.3456 64.2669 35.0736Z" fill="#B56760"/>
<path d="M66.4219 39.3763C66.4219 39.3763 66.5328 39.4405 66.7139 39.5106C66.967 39.6117 67.2493 39.6117 67.5024 39.5106C68.1215 39.2361 68.5946 38.1906 68.5595 37.1043C68.5493 36.5752 68.4174 36.0556 68.1741 35.5857C68.1061 35.4003 67.994 35.2343 67.8475 35.102C67.7009 34.9697 67.5243 34.8751 67.333 34.8264C67.213 34.8068 67.0899 34.8285 66.9838 34.8879C66.8777 34.9473 66.7949 35.0409 66.7489 35.1535C66.6789 35.3287 66.749 35.4455 66.6905 35.4572C66.6321 35.4689 66.5562 35.3638 66.5912 35.1126C66.6135 34.9616 66.6879 34.8232 66.8015 34.7213C66.9637 34.5835 67.1732 34.5143 67.3856 34.5286C67.6383 34.562 67.8783 34.6595 68.0828 34.8118C68.2872 34.9641 68.4493 35.1662 68.5537 35.3988C68.8451 35.9042 69.0057 36.4744 69.0209 37.0575C69.056 38.2782 68.507 39.4522 67.6484 39.7559C67.49 39.8147 67.3202 39.8363 67.1521 39.8191C66.984 39.8018 66.8221 39.7463 66.6789 39.6566C66.4511 39.5223 66.4219 39.3879 66.4219 39.3763Z" fill="#8A4A43"/>
<path d="M65.7977 32.6957L64.2674 34.3019C57.6617 27.9473 44.7073 12.1076 45.4315 13.0304C48.4476 11.901 51.6991 11.5475 54.8874 12.0024C59.8111 12.8435 69.1443 15.3024 69.0042 21.108C68.864 26.9135 65.7977 32.6957 65.7977 32.6957Z" fill="#263238"/>
<path d="M74.5662 31.3813C74.5489 31.2612 74.5175 31.1436 74.4727 31.0309C74.3649 30.7021 74.2281 30.3835 74.0639 30.0789C73.4405 28.9596 72.5792 27.9906 71.5407 27.2403C70.0013 26.1417 68.2845 25.3159 66.4652 24.799C64.4444 24.1448 62.1724 23.6308 59.9413 22.673C57.8325 21.7932 55.8316 20.6742 53.978 19.338C52.4674 18.2418 51.0598 17.0102 49.7728 15.6584C48.9059 14.7425 48.0927 13.7772 47.3373 12.7673L46.7532 11.9379C46.6867 11.8388 46.6125 11.745 46.5312 11.6576C46.5717 11.7706 46.6288 11.8769 46.7006 11.973C46.8291 12.1716 47.0102 12.4694 47.2847 12.8374C48.005 13.8805 48.7974 14.8719 49.656 15.8044C50.9317 17.1902 52.338 18.4498 53.8554 19.5658C55.7168 20.9316 57.7344 22.0707 59.8654 22.9592C62.0139 23.776 64.2032 24.4817 66.4244 25.0735C68.2208 25.5668 69.9223 26.3564 71.459 27.4097C72.4859 28.1322 73.3528 29.0587 74.0055 30.1314C74.4026 30.8907 74.537 31.3813 74.5662 31.3813Z" fill="#455A64"/>
<path d="M72.8089 32.3108C72.8277 31.8609 72.748 31.4124 72.5753 30.9966C72.1239 29.8417 71.334 28.8503 70.3091 28.1523C69.0534 27.2119 67.2545 26.6337 65.2745 26.1781C63.122 25.7512 61.0239 25.0851 59.0193 24.1923C57.0238 23.2828 55.1499 22.1271 53.4415 20.7522C52.0457 19.6272 50.7643 18.3673 49.6159 16.9909C48.8461 16.0621 48.1341 15.0868 47.4841 14.0706L46.9759 13.2178C46.9218 13.1146 46.8551 13.0184 46.7773 12.9316C46.8101 13.0424 46.8572 13.1485 46.9175 13.247L47.3848 14.1231C47.9964 15.1755 48.6856 16.1809 49.4465 17.131C50.5843 18.538 51.8621 19.8257 53.2604 20.9742C54.9817 22.3753 56.8735 23.5528 58.8908 24.4785C60.9148 25.3774 63.0351 26.0417 65.2103 26.4585C67.1844 26.8907 68.9483 27.4397 70.1865 28.3333C71.19 28.9969 71.9809 29.9358 72.4643 31.0375C72.6176 31.4506 72.7329 31.8768 72.8089 32.3108Z" fill="#455A64"/>
<path d="M65.6016 42.9114C65.6016 42.8705 66.1155 42.8004 67.0092 42.5668C68.2626 42.2013 69.4169 41.5563 70.385 40.6803C71.7984 39.3552 72.8738 37.711 73.5214 35.8851C74.3431 33.6537 74.7853 31.3005 74.8297 28.9231C74.8553 27.6957 74.7575 26.4689 74.5377 25.2611C74.3085 24.143 73.9721 23.0497 73.5331 21.9962C72.7717 20.2089 71.7155 18.5623 70.4084 17.1251C69.1729 15.8317 67.8177 14.6584 66.3608 13.6207C66.4793 13.6611 66.5914 13.7182 66.6938 13.7901C66.904 13.9244 67.2253 14.0997 67.6049 14.3742C68.7009 15.1263 69.7114 15.9959 70.6186 16.9674C71.9779 18.4051 73.0785 20.0668 73.8719 21.8793C74.3314 22.9551 74.6817 24.0743 74.9173 25.2202C75.1517 26.4518 75.2555 27.7047 75.2269 28.9582C75.1846 31.381 74.7222 33.7781 73.8602 36.0428C73.178 37.9153 72.0469 39.5919 70.5661 40.9256C69.5612 41.8056 68.3592 42.4306 67.0617 42.7478C66.7103 42.8318 66.353 42.8884 65.9929 42.9172C65.8628 42.9337 65.7311 42.9318 65.6016 42.9114Z" fill="#455A64"/>
<path d="M27.9568 69.041L28.1087 68.8483C34.7553 61.8396 46.9914 59.4624 46.9914 59.4624C46.9914 59.4624 47.739 64.0648 54.5842 64.5788C61.4294 65.0928 66.4815 58.1074 66.4815 58.1074L75.6337 59.3924C75.6337 59.3924 80.2361 59.9355 83.1038 61.6176C89.5636 65.4199 92.992 78.5203 92.992 78.5203L22.4258 78.8065L27.9568 69.041Z" fill="#455A64"/>
<path d="M21.5033 0L21.0127 0.0350444L20.4286 0.0700867C20.1892 0.0700867 19.9088 0.151856 19.5934 0.198581C17.7143 0.512818 15.9434 1.29182 14.442 2.46474C12.025 4.34771 10.4521 7.11131 10.0674 10.151C9.97946 11.0729 9.94825 11.9995 9.97395 12.9253C9.97395 13.889 9.97395 14.8819 9.97395 15.9098C9.97395 17.9599 9.97395 20.1384 9.97395 22.4338C9.97395 31.6327 9.97395 42.7591 10.009 55.4449C10.009 58.6183 10.009 61.8871 10.009 65.2513C10.009 66.0865 10.009 66.9392 10.0557 67.7744C10.1203 68.6212 10.273 69.459 10.5113 70.2742C11.0246 71.9336 11.9072 73.4552 13.0928 74.7247C13.6914 75.3688 14.3593 75.9446 15.0845 76.4418C15.8281 76.9343 16.6257 77.3399 17.4616 77.6509L18.0924 77.8845L18.7465 78.048C19.1844 78.1609 19.6293 78.2448 20.0782 78.2992C20.5279 78.3692 20.9835 78.3576 21.4391 78.3868H34.3351V78.5269C34.3351 84.2215 34.3351 90.3074 34.3351 96.5511L34.0957 96.4459C37.0783 93.6308 40.1095 90.726 43.1895 87.7317C46.25 84.7297 49.3805 81.6809 52.3651 78.4218L52.4118 78.3751H93.7224C94.4817 78.3751 95.2351 78.3751 95.971 78.3225C98.1852 78.1385 100.298 77.3129 102.05 75.9467C103.802 74.5804 105.118 72.733 105.836 70.6304C106.291 69.2505 106.503 67.8018 106.461 66.3493V61.9863C106.461 50.3986 106.461 39.208 106.461 28.5722C106.461 23.2534 106.461 18.0669 106.461 13.0129C106.51 11.7699 106.432 10.5252 106.227 9.29824C105.983 8.10824 105.559 6.96216 104.971 5.89901C103.774 3.81942 101.96 2.16395 99.7791 1.16228C98.7227 0.678475 97.5977 0.361269 96.4441 0.221944C95.3002 0.124593 94.1517 0.0914433 93.004 0.122652H86.2815H73.6424L35.4682 0.0584052L73.6074 0.0116815H86.2464H92.969C94.1264 -0.0189253 95.2846 0.0142206 96.4383 0.110971C97.6184 0.249812 98.7694 0.573032 99.8492 1.06883C102.077 2.09258 103.932 3.78227 105.158 5.90485C105.778 6.99839 106.227 8.18012 106.49 9.40922C106.693 10.654 106.771 11.916 106.724 13.1764C106.724 18.2383 106.724 23.4247 106.724 28.7358C106.724 39.3832 106.724 50.5621 106.724 62.1499V66.5128C106.767 67.9993 106.549 69.4818 106.081 70.8933C105.345 73.0513 103.995 74.9477 102.197 76.3503C100.4 77.7529 98.2317 78.6006 95.9594 78.7898C95.1943 78.8423 94.4408 78.8423 93.6874 78.8365H52.4819L52.5929 78.7898C49.5966 82.0547 46.4661 85.1035 43.3997 88.1347C40.3334 91.166 37.2846 93.841 34.3001 96.6562L34.0548 96.8898V96.5511C34.0548 90.3074 34.0548 84.2215 34.0548 78.5269L34.1949 78.6613H21.4507C20.9835 78.6262 20.5162 78.6613 20.0607 78.5678C19.6019 78.5121 19.1473 78.4262 18.6998 78.3108L18.0281 78.1415L17.3623 77.8962C16.51 77.5767 15.6969 77.1613 14.9385 76.658C14.1961 76.149 13.5108 75.5615 12.8943 74.9058C11.6892 73.6046 10.7911 72.0499 10.266 70.3559C10.0245 69.5231 9.86796 68.668 9.79873 67.8036C9.76953 66.9333 9.76953 66.0923 9.76953 65.2571C9.76953 61.8929 9.76953 58.6241 9.76953 55.4507C9.76953 42.7649 9.76953 31.6386 9.80458 22.4396C9.80458 20.1443 9.80458 17.9657 9.80458 15.9156C9.80458 14.8877 9.80458 13.8948 9.80458 12.9311C9.78307 11.9992 9.81818 11.0669 9.90971 10.1393C10.3101 7.07219 11.9106 4.28911 14.3602 2.40049C15.8682 1.23176 17.6456 0.460565 19.5292 0.157697C19.8446 0.116812 20.1132 0.0642455 20.3702 0.0467237L20.9543 0.0175211L21.5033 0Z" fill="#263238"/>
<path d="M63.7489 134.486H7.4571C3.7766 134.486 0.792969 137.469 0.792969 141.15V184.347C0.792969 188.028 3.7766 191.011 7.4571 191.011H63.7489C67.4294 191.011 70.413 188.028 70.413 184.347V141.15C70.413 137.469 67.4294 134.486 63.7489 134.486Z" fill="white"/>
<path d="M38.3906 189.282C39.1032 191.034 52.9162 203.989 52.9162 203.989V189.282H38.3906Z" fill="#B1C8D3"/>
<path d="M48.1029 147.025C47.7615 145.921 47.2035 144.895 46.4614 144.009C45.7193 143.122 44.8081 142.392 43.7808 141.862C41.4618 140.782 38.8395 140.543 36.3632 141.185C33.9098 141.834 31.5782 142.877 29.4596 144.274C28.2122 144.964 27.1049 145.881 26.1947 146.978C24.6353 149.052 23.1401 152.434 23.0583 155.027C22.9882 157.124 23.9403 162.339 24.8806 164.214C25.38 164.989 26.0973 165.598 26.9423 165.966C27.9502 167.824 29.2813 169.488 30.8731 170.878C31.317 169.461 31.7628 168.042 32.2106 166.62L48.1029 147.025Z" fill="#263238"/>
<path d="M46.8226 144.491L42.6758 143.872C45.0821 149.175 46.0458 161.441 47.5001 167.083C48.9544 164.834 52.2953 158.012 52.0324 155.343C51.7696 152.674 51.7112 143.895 46.8226 144.491Z" fill="#263238"/>
<path d="M27.5213 153.989C27.5511 152.48 28.0642 151.021 28.9851 149.825C29.9061 148.63 31.1864 147.762 32.6377 147.348L42.0703 144.656C46.1587 144.072 49.0439 149.065 49.4353 153.177C49.8616 157.745 50.1829 162.575 49.7448 166.026C48.8687 172.93 43.6297 173.97 43.6297 173.97C43.6297 173.97 43.7232 177.235 43.7757 179.226L42.2396 188.215L29.805 177.597L27.4688 154.071C27.4921 153.954 27.5155 154.147 27.5213 153.989Z" fill="#FFBF9D"/>
<path d="M47.3543 158.894C47.3655 159.123 47.2859 159.347 47.1328 159.518C46.9797 159.688 46.7655 159.792 46.5366 159.805C46.4247 159.818 46.3114 159.809 46.2033 159.777C46.0952 159.745 45.9946 159.692 45.9074 159.621C45.8203 159.549 45.7483 159.461 45.6959 159.361C45.6434 159.262 45.6116 159.153 45.6021 159.04C45.5939 158.811 45.6744 158.588 45.8267 158.417C45.9791 158.247 46.1916 158.141 46.4198 158.123C46.532 158.111 46.6455 158.122 46.7537 158.154C46.8618 158.187 46.9623 158.24 47.0494 158.312C47.1364 158.384 47.2083 158.472 47.2606 158.572C47.313 158.672 47.3448 158.782 47.3543 158.894Z" fill="#263238"/>
<path d="M48.4775 155.898C48.3724 156.015 47.689 155.542 46.7253 155.577C45.7616 155.612 45.0958 156.103 44.9732 155.986C44.8505 155.869 45.0257 155.729 45.3236 155.495C45.7258 155.2 46.2089 155.035 46.7078 155.022C47.2002 155.007 47.6847 155.148 48.092 155.425C48.425 155.641 48.5301 155.846 48.4775 155.898Z" fill="#263238"/>
<path d="M38.8152 158.894C38.8264 159.123 38.7468 159.347 38.5937 159.518C38.4406 159.688 38.2264 159.792 37.9976 159.805C37.8856 159.818 37.7723 159.809 37.6642 159.777C37.5561 159.745 37.4555 159.692 37.3684 159.621C37.2812 159.549 37.2093 159.461 37.1568 159.361C37.1044 159.262 37.0725 159.152 37.0631 159.04C37.0549 158.811 37.1362 158.587 37.2898 158.416C37.4434 158.245 37.6573 158.14 37.8866 158.123C37.9985 158.111 38.1117 158.122 38.2194 158.154C38.3272 158.187 38.4274 158.24 38.514 158.312C38.6006 158.384 38.6718 158.473 38.7236 158.573C38.7753 158.673 38.8065 158.782 38.8152 158.894Z" fill="#263238"/>
<path d="M39.476 156.154C39.365 156.271 38.6875 155.798 37.7238 155.833C36.7601 155.868 36.1001 156.358 35.9716 156.242C35.8431 156.125 36.0242 155.985 36.322 155.751C36.7242 155.456 37.2073 155.29 37.7063 155.278C38.1986 155.263 38.6831 155.404 39.0905 155.681C39.4176 155.897 39.5577 156.101 39.476 156.154Z" fill="#263238"/>
<path d="M42.646 163.514C43.1434 163.346 43.6591 163.238 44.1821 163.192C44.4215 163.157 44.6493 163.105 44.6843 162.935C44.6968 162.685 44.6337 162.437 44.5033 162.223C44.258 161.639 44.001 161.055 43.7265 160.401C42.6518 157.807 41.8692 155.67 41.9743 155.629C42.0794 155.588 43.0315 157.655 44.1061 160.249L44.8537 162.083C45.013 162.371 45.0667 162.705 45.0056 163.029C44.9732 163.115 44.9216 163.193 44.8549 163.257C44.7882 163.321 44.7079 163.368 44.6201 163.397C44.4872 163.437 44.3499 163.46 44.2113 163.467C43.6936 163.549 43.1676 163.565 42.646 163.514Z" fill="#263238"/>
<path d="M34.4453 171.761C34.4453 171.761 36.8166 176.433 43.6676 175.557L43.6443 173.945C40.4347 174.085 37.2495 173.329 34.4453 171.761Z" fill="#FF9A6C"/>
<path d="M39.0771 152.739C38.9895 152.996 38.0433 152.908 36.9336 153.072C35.8239 153.235 34.9361 153.574 34.7784 153.346C34.7083 153.235 34.8602 152.99 35.2164 152.727C35.6909 152.407 36.232 152.199 36.7986 152.12C37.3653 152.04 37.9427 152.09 38.4872 152.266C38.9019 152.418 39.1121 152.616 39.0771 152.739Z" fill="#263238"/>
<path d="M48.0855 153.006C47.9278 153.228 47.2678 153.006 46.4793 153.035C45.6908 153.064 45.0367 153.228 44.8732 153.006C44.8031 152.895 44.9024 152.679 45.1886 152.468C45.5704 152.21 46.021 152.072 46.4823 152.072C46.9435 152.072 47.3941 152.21 47.7759 152.468C48.0563 152.679 48.1556 152.901 48.0855 153.006Z" fill="#263238"/>
<path d="M47.383 146.954C47.1264 146.456 46.7365 146.04 46.257 145.751C45.7774 145.462 45.2269 145.313 44.6671 145.319C43.5438 145.348 42.4527 145.701 41.5249 146.335C37.5007 148.817 35.5616 154.588 31.5959 157.152C30.6205 157.777 29.3063 157.263 28.4828 158.086C27.6593 158.91 27.1512 160.195 27.6476 161.246C27.0486 160.541 26.553 159.754 26.1758 158.91C25.9913 158.486 25.8996 158.027 25.9066 157.565C25.9137 157.103 26.0194 156.647 26.2167 156.229C26.5496 155.61 27.1512 155.131 27.303 154.477C27.4549 153.823 27.1804 153.256 27.192 152.643C27.247 152.021 27.447 151.421 27.7761 150.891C29.2148 147.991 31.4155 145.538 34.1424 143.794C35.9422 142.678 38.0115 142.073 40.129 142.042C42.2527 142.031 44.3101 142.781 45.9287 144.156C46.8574 144.974 47.8327 145.821 47.3947 146.977" fill="#263238"/>
<path d="M28.6044 158.935C28.5226 158.743 24.9014 157.551 24.9657 161.359C25.0241 165.062 28.7387 164.227 28.7387 164.122C28.7387 164.017 28.6044 158.935 28.6044 158.935Z" fill="#FFBF9D"/>
<path d="M27.5733 162.743C27.5733 162.743 27.5091 162.79 27.404 162.836C27.2482 162.898 27.0749 162.898 26.9192 162.836C26.6787 162.687 26.4815 162.478 26.3472 162.229C26.213 161.98 26.1464 161.7 26.1541 161.417C26.1423 161.099 26.1981 160.783 26.3176 160.488C26.3518 160.373 26.413 160.267 26.4963 160.179C26.5796 160.092 26.6825 160.026 26.7965 159.986C26.8696 159.965 26.9479 159.97 27.0175 160.001C27.087 160.032 27.1432 160.087 27.1762 160.155C27.2287 160.261 27.2054 160.331 27.2287 160.336C27.2521 160.342 27.3047 160.278 27.2755 160.12C27.2509 160.03 27.1976 159.95 27.1236 159.893C27.0207 159.818 26.893 159.787 26.7673 159.805C26.6161 159.838 26.4757 159.909 26.3592 160.011C26.2428 160.113 26.1541 160.243 26.1015 160.389C25.95 160.712 25.8798 161.067 25.8971 161.423C25.8853 161.753 25.9717 162.08 26.1452 162.362C26.3188 162.644 26.5718 162.868 26.8725 163.006C26.972 163.031 27.0759 163.034 27.1767 163.015C27.2776 162.995 27.3731 162.954 27.4565 162.895C27.5675 162.83 27.5909 162.749 27.5733 162.743Z" fill="#FF9A6C"/>
<path d="M27.0742 157.077C27.1506 157.044 27.223 157.003 27.2903 156.954C27.4305 156.861 27.6408 156.738 27.8744 156.545C28.5869 155.99 29.2389 155.362 29.8193 154.67C30.6591 153.635 31.4391 152.553 32.1555 151.429C33.0193 150.053 33.9961 148.752 35.0759 147.539C35.6576 146.931 36.3038 146.389 37.0032 145.921C37.6596 145.496 38.3658 145.152 39.1059 144.899C40.3593 144.457 41.6855 144.259 43.0132 144.315C43.9086 144.345 44.7962 144.492 45.6532 144.753C45.9569 144.841 46.1847 144.934 46.3424 144.987L46.5877 145.068L46.3541 144.957C46.1315 144.857 45.9033 144.769 45.6707 144.695C44.8135 144.402 43.9184 144.234 43.0132 144.198C41.6679 144.135 40.3232 144.334 39.0533 144.782C38.3005 145.039 37.5824 145.388 36.9156 145.822C36.2023 146.292 35.544 146.84 34.9532 147.457C33.8686 148.677 32.8915 149.988 32.0329 151.376C31.3098 152.5 30.5301 153.585 29.6967 154.629C29.1482 155.302 28.5381 155.922 27.8744 156.481C27.6291 156.679 27.4188 156.814 27.2903 156.919L27.0742 157.077Z" fill="white"/>
<path d="M28.04 158.123C27.9217 159.116 28.0668 160.123 28.4605 161.043C28.957 161.931 30.1485 162.509 31.0129 161.977C31.7196 161.551 31.9065 160.622 32.0058 159.805C32.292 157.439 32.3796 155.051 32.6833 152.685L28.04 158.123Z" fill="#263238"/>
<path d="M46.4275 145.221C46.4275 145.221 46.1004 145.168 45.5047 145.168C44.667 145.178 43.8394 145.353 43.0692 145.682C42.5374 145.907 42.0305 146.187 41.5565 146.517C41.0148 146.903 40.4978 147.322 40.0087 147.773C38.8736 148.791 37.8656 149.942 37.0066 151.201C36.5569 151.873 36.1597 152.562 35.7217 153.205C35.3181 153.829 34.8416 154.404 34.3024 154.916C33.365 155.757 32.3342 156.488 31.2303 157.095C30.3016 157.626 29.519 158 28.9816 158.263L28.3567 158.549C28.2846 158.587 28.2081 158.617 28.1289 158.636C28.1938 158.587 28.2644 158.546 28.3392 158.514L28.9232 158.187C29.4489 157.906 30.2198 157.515 31.1368 156.978C32.2163 156.357 33.2249 155.621 34.1447 154.782C34.6748 154.278 35.1434 153.713 35.5406 153.1C35.967 152.463 36.3642 151.774 36.8197 151.09C37.6935 149.809 38.7213 148.64 39.8802 147.609C40.3806 147.162 40.9072 146.744 41.4572 146.359C41.9426 146.026 42.4637 145.748 43.0108 145.53C43.8011 145.205 44.6504 145.048 45.5047 145.069C45.736 145.077 45.9664 145.102 46.1939 145.145C46.2745 145.161 46.3529 145.186 46.4275 145.221Z" fill="#455A64"/>
<path d="M27.8767 155.815C27.7789 155.903 27.6711 155.98 27.5555 156.043L26.6327 156.627L26.3231 156.814C26.2013 156.892 26.0636 156.942 25.9201 156.96C25.8335 156.975 25.7442 156.959 25.669 156.913C25.6283 156.885 25.5941 156.849 25.5689 156.806C25.5437 156.764 25.528 156.717 25.523 156.668C25.5278 156.497 25.5849 156.332 25.6865 156.195L26.7261 154.442L26.878 154.577C26.5252 154.847 26.1306 155.058 25.7099 155.202C25.2845 155.342 24.8378 155.408 24.3899 155.394C24.2753 155.396 24.1612 155.38 24.0511 155.348C23.9869 155.332 23.9272 155.302 23.8766 155.259C23.826 155.217 23.7858 155.163 23.7591 155.102C23.7368 155.041 23.7295 154.975 23.7376 154.91C23.7457 154.845 23.7691 154.783 23.8058 154.729C23.8681 154.644 23.9364 154.564 24.0103 154.489C24.4835 154.005 24.8883 153.459 25.2134 152.865C25.508 152.301 25.7598 151.715 25.9669 151.113C25.9567 151.283 25.9233 151.45 25.8676 151.61C25.7373 152.058 25.5631 152.492 25.3478 152.906C25.0281 153.531 24.621 154.108 24.1387 154.618C24.0044 154.752 23.8701 154.91 23.9285 155.021C23.9869 155.132 24.1913 155.19 24.3841 155.184C24.8085 155.196 25.2316 155.133 25.6339 154.997C26.0346 154.868 26.41 154.67 26.7437 154.413L27.1759 154.08L26.8955 154.548L25.8325 156.3C25.7498 156.406 25.6991 156.534 25.6865 156.668C25.6865 156.773 25.7858 156.831 25.9026 156.82C26.139 156.762 26.3628 156.661 26.5626 156.522L27.5146 156.002C27.6256 155.922 27.7476 155.859 27.8767 155.815Z" fill="white"/>
<path d="M39.0942 165.366C39.1544 165.082 39.3128 164.829 39.5414 164.65C39.77 164.472 40.0542 164.38 40.344 164.39C40.5561 164.411 40.7597 164.484 40.9369 164.602C41.1142 164.72 41.2596 164.88 41.3603 165.068C41.4566 165.258 41.514 165.466 41.5291 165.678C41.5441 165.891 41.5165 166.104 41.4479 166.306V166.394C41.258 166.612 41.0049 166.767 40.7236 166.836C40.4422 166.905 40.1464 166.885 39.8768 166.779C39.6076 166.664 39.3844 166.463 39.2426 166.207C39.1008 165.951 39.0486 165.655 39.0942 165.366Z" fill="#FF9A6C"/>
<path d="M42.1229 166.394C42.1229 166.254 41.165 166.324 40.4174 165.559C39.6698 164.794 39.699 163.766 39.5647 163.766C39.4303 163.766 39.4011 164.011 39.4187 164.443C39.458 165.003 39.6914 165.532 40.0786 165.939C40.4517 166.33 40.9631 166.561 41.5038 166.581C41.8951 166.587 42.1345 166.458 42.1229 166.394Z" fill="#263238"/>
<path d="M57.4179 184.189L57.3128 184.049C52.5235 178.985 43.7158 177.292 43.7158 177.292C43.7158 177.292 43.1785 180.603 38.2432 180.977C33.3079 181.351 29.675 176.304 29.675 176.304L23.0926 177.227C23.0926 177.227 19.7752 177.619 17.7076 178.833C13.0351 181.567 10.5938 190.999 10.5938 190.999L61.407 191.204L57.4179 184.189Z" fill="#B1C8D3"/>
<path d="M62.067 134.486C62.067 134.486 62.1839 134.486 62.4175 134.486C62.7699 134.489 63.1215 134.52 63.4688 134.58C64.8255 134.799 66.1061 135.353 67.1951 136.192C68.9597 137.555 70.1143 139.559 70.4074 141.77C70.4743 142.439 70.4997 143.112 70.4834 143.785C70.4834 144.474 70.4834 145.192 70.4834 145.928C70.4834 147.406 70.4834 148.977 70.4834 150.63C70.4834 157.247 70.4834 165.261 70.5184 174.389C70.5184 176.671 70.5184 179.025 70.5184 181.451C70.5184 182.035 70.5184 182.66 70.5184 183.285C70.4723 183.91 70.3587 184.529 70.1796 185.13C69.8047 186.356 69.1556 187.481 68.2814 188.419C67.3935 189.39 66.2861 190.135 65.0516 190.591L64.5843 190.761L64.0996 190.883C63.7767 190.966 63.449 191.028 63.1184 191.07C62.4524 191.131 61.7836 191.155 61.115 191.14H52.9382L53.0725 191C53.0725 195.089 53.0725 199.486 53.0725 203.978V204.311L52.8272 204.083C50.6779 202.066 48.4935 199.985 46.274 197.839C44.0663 195.678 41.8118 193.482 39.6508 191.129L39.7618 191.181H10.074C9.5308 191.181 8.98762 191.181 8.43276 191.146C6.78889 191.009 5.22065 190.395 3.91988 189.381C2.6191 188.366 1.64219 186.995 1.10864 185.434C0.772049 184.413 0.613983 183.343 0.641397 182.268V179.126C0.641397 170.78 0.641397 162.737 0.641397 155.069C0.641397 151.237 0.641397 147.505 0.641397 143.872C0.609141 142.961 0.667837 142.05 0.816615 141.151C1.00593 140.268 1.32894 139.419 1.77447 138.633C2.66238 137.096 4.00505 135.872 5.61759 135.129C6.39885 134.774 7.2302 134.541 8.08233 134.44C8.91348 134.367 9.74819 134.344 10.5821 134.37H24.5412L51.992 134.416L59.4563 134.445L51.992 134.475L24.5412 134.521H15.4415H10.5996C9.77534 134.503 8.95065 134.528 8.12905 134.597C6.86351 134.759 5.6528 135.212 4.59254 135.921C3.53228 136.631 2.65151 137.577 2.01978 138.686C1.58389 139.466 1.27068 140.31 1.09112 141.186C0.944928 142.067 0.890126 142.962 0.927586 143.855C0.927586 147.48 0.927586 151.212 0.927586 155.051C0.927586 162.72 0.927586 170.762 0.927586 179.109V182.251C0.894833 183.292 1.0471 184.33 1.37731 185.317C2.06396 187.326 3.50498 188.989 5.39565 189.955C6.34794 190.446 7.38812 190.744 8.45613 190.831C8.98178 190.866 9.52496 190.872 10.074 190.866H39.826L39.8727 190.918C42.0221 193.255 44.2766 195.456 46.4785 197.617C48.6804 199.778 50.8764 201.864 53.0258 203.89L52.7805 203.995C52.7805 199.504 52.7805 195.118 52.7805 191.018V190.877H61.0975C61.7543 190.897 62.4117 190.876 63.0658 190.813C63.3872 190.777 63.7054 190.716 64.0178 190.632L64.4909 190.515L64.9406 190.352C66.1393 189.912 67.2149 189.191 68.077 188.249C68.9246 187.341 69.5556 186.253 69.9227 185.066C70.0965 184.482 70.2081 183.881 70.2556 183.273C70.2965 182.689 70.2848 182.058 70.2848 181.457C70.2848 179.035 70.2848 176.681 70.2848 174.395C70.2848 165.266 70.2848 157.253 70.3198 150.636C70.3198 148.983 70.3198 147.412 70.3198 145.934V143.79C70.3402 143.124 70.3188 142.457 70.2556 141.793C70.0328 140.027 69.2502 138.379 68.0226 137.091C66.7949 135.802 65.1867 134.94 63.4337 134.632C63.0911 134.564 62.7433 134.525 62.3941 134.516L62.067 134.486Z" fill="#263238"/>
<path d="M170.387 250.457L97.5193 250.404C88.7584 250.404 81.6562 243.629 81.6562 235.277L81.6913 61.1687C81.6913 52.8108 88.8051 46.0357 97.5777 46.0415L170.451 46.0824C179.212 46.0824 186.314 52.8575 186.314 61.2096L186.279 235.312C186.273 243.693 179.148 250.463 170.387 250.457Z" fill="#263238"/>
<path d="M170.389 52.2623H156.243C155.793 52.2616 155.348 52.3493 154.932 52.5206C154.517 52.6919 154.139 52.9434 153.821 53.2607C153.502 53.5779 153.25 53.9548 153.077 54.3698C152.904 54.7847 152.815 55.2296 152.814 55.6791V58.1205C152.814 58.5704 152.724 59.0158 152.551 59.4311C152.378 59.8465 152.125 60.2236 151.806 60.541C151.487 60.8583 151.108 61.1097 150.692 61.2806C150.276 61.4516 149.83 61.5388 149.38 61.5372H121.842C121.392 61.538 120.947 61.4502 120.531 61.2789C120.116 61.1076 119.738 60.8562 119.42 60.5389C119.101 60.2216 118.849 59.8447 118.676 59.4298C118.503 59.0148 118.414 58.5699 118.413 58.1205V55.6732C118.412 55.2233 118.323 54.7779 118.15 54.3626C117.977 53.9472 117.723 53.5701 117.404 53.2527C117.085 52.9354 116.707 52.6841 116.291 52.5131C115.875 52.3422 115.429 52.255 114.979 52.2565H97.6439C91.5054 52.2565 86.5468 56.9991 86.5468 62.8514L86.5117 232.813C86.5117 238.654 91.4821 243.408 97.6089 243.408L170.336 243.449C176.48 243.449 181.433 238.712 181.462 232.86L181.497 62.8981C181.486 57.0107 176.51 52.2682 170.389 52.2623Z" fill="white"/>
<path d="M131.564 94.624C132.592 94.5504 133.556 94.0965 134.268 93.3507C134.98 92.605 135.388 91.6209 135.414 90.5904C135.439 89.5599 135.08 88.5568 134.406 87.7767C133.732 86.9967 132.792 86.4956 131.769 86.3712C132.266 85.6151 132.513 84.7216 132.475 83.8172C132.436 82.9128 132.114 82.0435 131.554 81.3325C130.993 80.6216 130.223 80.1051 129.353 79.8563C128.483 79.6076 127.556 79.6391 126.705 79.9465C126.501 79.0779 126.075 78.277 125.469 77.622C124.863 76.9669 124.098 76.4801 123.248 76.2089C122.398 75.9377 121.492 75.8914 120.619 76.0746C119.745 76.2577 118.934 76.6641 118.265 77.254C117.123 76.645 115.811 76.4327 114.535 76.6505C113.259 76.8682 112.091 77.5038 111.215 78.4572C110.324 78.4546 109.455 78.7407 108.74 79.2726C108.024 79.8045 107.5 80.5538 107.246 81.4083C106.991 82.2628 107.021 83.1767 107.329 84.0134C107.637 84.85 108.207 85.5645 108.955 86.05" fill="#263238"/>
<path d="M132.266 95.0796C131.091 90.8114 128.351 87.1428 124.591 84.8047C120.832 82.4667 116.33 81.6309 111.982 82.4639L111.088 82.6333C101.545 85.0396 98.239 94.4839 100.914 103.963L107.596 138.364L127.261 153.55L132.348 140.882L130.345 129.434C130.345 129.434 139.351 126.222 137.698 116.924C136.921 112.42 134.527 103.303 132.266 95.0796Z" fill="#C17560"/>
<path d="M130.443 129.393C126.129 130.218 121.669 129.786 117.594 128.149C117.594 128.149 121.618 134.486 130.718 131.887L130.443 129.393Z" fill="#7C4236"/>
<path d="M131.436 103.98C131.506 104.325 131.438 104.684 131.247 104.98C131.056 105.275 130.757 105.485 130.414 105.563C130.248 105.609 130.075 105.621 129.904 105.598C129.733 105.575 129.569 105.519 129.42 105.432C129.271 105.345 129.142 105.229 129.039 105.091C128.936 104.953 128.861 104.796 128.82 104.629C128.75 104.284 128.818 103.925 129.009 103.629C129.2 103.333 129.499 103.124 129.842 103.046C130.008 103 130.181 102.988 130.352 103.011C130.523 103.033 130.687 103.09 130.836 103.177C130.985 103.264 131.114 103.38 131.217 103.518C131.321 103.656 131.395 103.813 131.436 103.98Z" fill="#263238"/>
<path d="M131.134 100.003C131.005 100.202 129.86 99.6525 128.435 99.927C127.01 100.202 126.099 101.095 125.912 100.972C125.819 100.908 125.912 100.564 126.321 100.143C126.857 99.5987 127.549 99.2335 128.301 99.0977C129.042 98.9508 129.81 99.0471 130.491 99.3722C130.993 99.6233 131.204 99.9095 131.134 100.003Z" fill="#263238"/>
<path d="M118.507 106.725C118.574 107.07 118.505 107.428 118.313 107.723C118.121 108.017 117.822 108.225 117.479 108.302C117.313 108.348 117.14 108.36 116.969 108.337C116.799 108.314 116.635 108.258 116.487 108.171C116.339 108.084 116.21 107.968 116.107 107.83C116.004 107.692 115.931 107.535 115.89 107.368C115.82 107.024 115.888 106.666 116.079 106.371C116.27 106.076 116.569 105.868 116.912 105.791C117.078 105.745 117.252 105.733 117.422 105.756C117.593 105.778 117.758 105.835 117.906 105.922C118.055 106.009 118.185 106.125 118.288 106.263C118.391 106.401 118.465 106.558 118.507 106.725Z" fill="#263238"/>
<path d="M117.166 102.935C117.038 103.14 115.893 102.585 114.468 102.86C113.043 103.134 112.132 104.028 111.945 103.905C111.857 103.841 111.945 103.496 112.354 103.082C112.888 102.547 113.573 102.188 114.316 102.054C115.057 101.911 115.824 102.007 116.506 102.328C117.026 102.556 117.237 102.842 117.166 102.935Z" fill="#263238"/>
<path d="M124.357 112.527C124.357 112.445 125.192 112.124 126.594 111.662C126.95 111.557 127.283 111.423 127.295 111.16C127.253 110.778 127.096 110.418 126.845 110.126L125.245 107.562C122.996 103.9 121.296 100.857 121.442 100.77C121.588 100.682 123.533 103.579 125.782 107.241L127.341 109.829C127.654 110.226 127.817 110.72 127.803 111.224C127.774 111.363 127.715 111.493 127.629 111.605C127.543 111.718 127.432 111.809 127.306 111.873C127.12 111.962 126.924 112.029 126.722 112.071C125.274 112.428 124.38 112.603 124.357 112.527Z" fill="#263238"/>
<path d="M116.656 98.0003C116.539 98.3974 115.242 98.2397 113.735 98.4734C112.228 98.707 111.002 99.2034 110.815 98.853C110.722 98.6836 110.926 98.3098 111.399 97.9185C112.031 97.434 112.777 97.122 113.566 97.0132C114.342 96.8928 115.136 96.9794 115.867 97.2644C116.445 97.5097 116.732 97.8134 116.656 98.0003Z" fill="#263238"/>
<path d="M130.344 94.9232C130.104 95.3029 128.866 95.1919 127.423 95.443C125.981 95.6942 124.853 96.1614 124.503 95.8752C124.351 95.7292 124.474 95.3729 124.941 94.9641C125.59 94.4447 126.367 94.108 127.19 93.9887C128.004 93.8361 128.844 93.9088 129.619 94.199C130.221 94.4618 130.449 94.7363 130.344 94.9232Z" fill="#263238"/>
<path d="M104.149 112.706C104.073 112.368 103.929 112.048 103.725 111.767C103.522 111.485 103.264 111.248 102.966 111.07C102.668 110.891 102.338 110.775 101.994 110.728C101.65 110.681 101.3 110.704 100.965 110.797C99.2659 111.293 97.5254 112.642 98.3255 116.193C99.7331 122.495 105.772 119.779 105.743 119.598C105.714 119.417 104.762 115.341 104.149 112.706Z" fill="#C17560"/>
<path d="M103.841 117.531C103.812 117.531 103.748 117.636 103.584 117.759C103.349 117.931 103.055 118.005 102.766 117.963C102.042 117.864 101.248 116.935 100.962 115.808C100.823 115.271 100.809 114.71 100.921 114.167C100.935 113.957 101 113.753 101.111 113.574C101.222 113.395 101.375 113.245 101.557 113.139C101.676 113.08 101.811 113.063 101.94 113.09C102.07 113.118 102.186 113.189 102.27 113.291C102.393 113.449 102.381 113.583 102.422 113.589C102.463 113.595 102.533 113.454 102.422 113.203C102.35 113.055 102.231 112.936 102.083 112.865C101.981 112.822 101.872 112.8 101.762 112.8C101.651 112.8 101.542 112.822 101.44 112.865C101.193 112.973 100.978 113.144 100.815 113.359C100.653 113.575 100.548 113.829 100.512 114.097C100.366 114.701 100.366 115.332 100.512 115.937C100.839 117.198 101.756 118.273 102.725 118.302C102.906 118.314 103.087 118.284 103.255 118.217C103.422 118.149 103.573 118.044 103.695 117.911C103.864 117.689 103.864 117.543 103.841 117.531Z" fill="#7C4236"/>
<path d="M124.482 82.8915C124.394 82.7443 124.291 82.6072 124.173 82.4827C123.722 82.0248 123.17 81.6783 122.562 81.4704C121.954 81.2626 121.305 81.1993 120.668 81.2854C119.883 81.0522 119.08 80.8803 118.268 80.7714C117.651 80.0403 116.858 79.4788 115.963 79.14C115.069 78.8013 114.102 78.6966 113.156 78.8358C112.21 78.975 111.314 79.3536 110.555 79.9355C109.796 80.5175 109.198 81.2837 108.818 82.1614C108.561 82.2491 108.31 82.3425 108.059 82.4418C107.267 82.0623 106.4 81.8694 105.522 81.878C104.645 81.8866 103.781 82.0965 102.997 82.4914C102.213 82.8863 101.531 83.4558 101.002 84.156C100.473 84.8562 100.112 85.6685 99.9459 86.5302C99.128 86.4676 98.3098 86.6479 97.594 87.0485C96.8782 87.4491 96.2966 88.0522 95.9223 88.7821C95.548 89.5121 95.3976 90.3363 95.49 91.1514C95.5823 91.9664 95.9134 92.7361 96.4416 93.3637C95.4253 94.234 94.6894 95.554 94.8879 96.8681C95.0865 98.1822 96.4649 99.105 97.6272 98.7312C97.9835 101.815 98.9881 105.331 99.7473 108.456C100.285 110.658 103.363 111.44 103.836 112.912C106.289 120.417 107.994 115.687 105.927 99.5723C106.061 99.4146 106.201 99.2511 106.336 99.0758C106.532 98.6986 106.701 98.3083 106.844 97.9077C107.112 97.4346 107.778 97.4405 108.321 97.3937C109.261 97.2882 110.137 96.8627 110.8 96.1885C111.464 95.5143 111.875 94.6324 111.966 93.6908C112.55 94.2749 113.666 94.0646 114.302 93.4689C114.861 92.8135 115.323 92.0819 115.675 91.2962C116.113 90.5486 116.784 89.8302 117.643 89.7893C118.121 89.8581 118.605 89.8718 119.086 89.8302C119.903 89.6024 120.125 88.5452 120.09 87.6983C119.986 86.9822 120.079 86.2513 120.359 85.584C120.816 85.2376 121.332 84.9783 121.883 84.8189C122.204 84.8189 122.537 84.8189 122.853 84.7839C123.004 84.7756 123.154 84.756 123.303 84.7255C123.511 84.7539 123.718 84.7949 123.922 84.8481C126.982 85.6716 130.533 91.0158 130.533 91.0158C130.089 87.2778 127.473 84.5911 124.482 82.8915Z" fill="#263238"/>
<path d="M95.7109 93.8249C95.7109 93.8249 95.7109 93.7899 95.7518 93.7198C95.7927 93.6497 95.8278 93.5562 95.9037 93.4336C96.1338 93.085 96.4222 92.7788 96.7564 92.5283C97.2883 92.1329 97.9071 91.8705 98.5612 91.7632C99.4269 91.6122 100.318 91.7649 101.084 92.1954L100.921 92.283C100.978 91.5623 101.187 90.8619 101.536 90.2285C101.884 89.5951 102.363 89.0431 102.942 88.6092C103.58 88.1032 104.307 87.7209 105.085 87.482C105.908 87.2439 106.764 87.1433 107.62 87.1841C109.223 87.2813 110.794 87.6775 112.252 88.3522L112.076 88.4457C112.363 87.0166 113.181 85.7495 114.366 84.9005C115.133 84.3613 116.025 84.0249 116.957 83.9228C117.889 83.8207 118.832 83.9561 119.698 84.3164C119.879 84.3904 120.055 84.4763 120.224 84.5734C120.335 84.6435 120.393 84.6844 120.387 84.6902C120.382 84.696 120.142 84.5675 119.669 84.3923C118.99 84.1462 118.271 84.0293 117.549 84.0477C116.448 84.07 115.38 84.4287 114.488 85.0757C113.364 85.9029 112.59 87.1222 112.322 88.4924L112.292 88.6501L112.146 88.5859C110.718 87.923 109.18 87.5271 107.608 87.4178C106.782 87.3813 105.956 87.478 105.161 87.7039C104.412 87.9276 103.712 88.2923 103.099 88.7786C102.542 89.1907 102.079 89.716 101.74 90.32C101.401 90.924 101.193 91.593 101.131 92.283V92.4582L100.979 92.3706C100.258 91.9504 99.4147 91.7915 98.5904 91.9209C97.9595 92.0105 97.359 92.2488 96.8382 92.6159C96.3863 92.9405 96.0031 93.3514 95.7109 93.8249Z" fill="#455A64"/>
<path d="M120.367 85.1464C120.353 85.2375 120.332 85.3274 120.303 85.415C120.25 85.6711 120.217 85.9307 120.204 86.1918C120.204 86.5364 120.204 86.9569 120.163 87.4534C120.177 88.0287 120.068 88.6005 119.842 89.1297C119.758 89.2854 119.644 89.423 119.507 89.5343C119.369 89.6456 119.211 89.7284 119.041 89.778C118.684 89.8639 118.317 89.909 117.949 89.9123C117.577 89.9131 117.211 90.0096 116.886 90.1926C116.565 90.4332 116.296 90.7374 116.098 91.0863C115.876 91.4425 115.677 91.8339 115.461 92.2544C115.268 92.6795 115.012 93.0733 114.702 93.4225C114.335 93.7707 113.888 94.0216 113.399 94.1526C113.148 94.2281 112.885 94.2597 112.623 94.246C112.335 94.2416 112.06 94.1241 111.857 93.919L112.079 93.8372C112.062 94.6386 111.774 95.4106 111.262 96.0274C110.719 96.6612 110.012 97.1322 109.218 97.3883C108.888 97.4931 108.55 97.5693 108.207 97.6161C107.89 97.6057 107.575 97.6655 107.284 97.7913C107.019 97.9397 106.813 98.1748 106.7 98.4571C106.554 98.7507 106.384 99.032 106.192 99.2982C105.509 100.37 104.448 101.146 103.219 101.471C102.096 101.632 100.952 101.379 100.001 100.758C99.1839 100.244 98.5407 99.4946 98.1554 98.609L98.2781 98.6557C97.9336 98.7987 97.5619 98.8639 97.1894 98.8468C96.8169 98.8296 96.4527 98.7305 96.1229 98.5564C95.628 98.2916 95.2415 97.8617 95.0307 97.3415C94.8973 97.022 94.8355 96.6771 94.8496 96.3311C94.8501 96.2427 94.8599 96.1546 94.8788 96.0683C94.8788 96.0099 94.8788 95.9807 94.8788 95.9807C94.8433 96.4341 94.9195 96.8894 95.1008 97.3065C95.3145 97.7922 95.6902 98.1886 96.1638 98.4279C96.475 98.5837 96.8163 98.6701 97.1642 98.6812C97.5121 98.6923 97.8582 98.6278 98.1788 98.4921L98.2664 98.4571L98.3014 98.5389C98.6842 99.3808 99.3082 100.09 100.094 100.577C101.001 101.156 102.085 101.389 103.149 101.231C104.31 100.918 105.311 100.183 105.958 99.1697C106.144 98.9153 106.309 98.6457 106.449 98.3636C106.587 98.0341 106.829 97.759 107.138 97.581C107.298 97.4944 107.472 97.4389 107.652 97.4175L108.149 97.3766C108.474 97.3324 108.795 97.2581 109.107 97.1546C109.855 96.9182 110.523 96.4772 111.034 95.8814C111.513 95.3106 111.783 94.5937 111.799 93.8489V93.5451L112.009 93.7671C112.191 93.9034 112.404 93.9907 112.63 94.0203C112.855 94.05 113.084 94.0211 113.294 93.9365C113.743 93.8179 114.154 93.589 114.492 93.2706C114.804 92.932 115.061 92.5456 115.251 92.1259C115.473 91.7287 115.677 91.3374 115.911 90.9578C116.128 90.5844 116.42 90.2602 116.769 90.0057C117.126 89.806 117.529 89.7033 117.938 89.7079C118.291 89.7069 118.644 89.6678 118.989 89.5911C119.137 89.5505 119.276 89.4811 119.397 89.3869C119.518 89.2927 119.62 89.1755 119.696 89.042C119.923 88.5373 120.038 87.9894 120.034 87.4359C120.064 86.9453 120.081 86.5189 120.116 86.1743C120.14 85.9095 120.189 85.6474 120.262 85.3917C120.287 85.3059 120.322 85.2236 120.367 85.1464Z" fill="#455A64"/>
<path d="M120.387 115.861C120.124 117.614 120.878 119.29 122.525 119.891C122.845 119.991 123.182 120.026 123.517 119.995C123.851 119.964 124.176 119.867 124.472 119.71C124.769 119.553 125.032 119.339 125.246 119.081C125.46 118.822 125.621 118.524 125.72 118.203C125.908 117.487 125.922 116.736 125.761 116.013C124.248 115.926 121.912 115.949 120.387 115.861Z" fill="#7C4236"/>
<path d="M125.415 118.91C125.415 118.91 125.415 118.956 125.351 119.032C125.278 119.144 125.192 119.246 125.094 119.336C124.735 119.678 124.281 119.904 123.792 119.984C123.054 120.097 122.3 119.944 121.666 119.552C121.286 119.3 120.964 118.972 120.717 118.589C120.471 118.206 120.307 117.776 120.235 117.327C120.2 117.091 120.188 116.852 120.2 116.614C120.201 116.365 120.265 116.12 120.386 115.902C120.462 115.785 120.576 115.696 120.708 115.651C120.825 115.613 120.947 115.598 121.07 115.604H121.689C122.489 115.645 123.207 115.721 123.809 115.785C125.006 115.913 125.754 115.949 125.754 115.995C125.102 116.072 124.443 116.072 123.792 115.995C123.207 115.96 122.472 115.902 121.677 115.878H121.093C120.889 115.878 120.743 115.908 120.655 116.048C120.569 116.23 120.525 116.43 120.527 116.632C120.5 117.154 120.606 117.675 120.836 118.145C121.066 118.615 121.412 119.019 121.841 119.319C122.417 119.685 123.101 119.843 123.78 119.768C124.242 119.717 124.68 119.534 125.041 119.243C125.287 119.044 125.415 118.886 125.415 118.91Z" fill="#263238"/>
<path d="M160.691 98.7537C160.691 98.7537 168.091 97.8309 179.212 88.9824C190.332 80.1339 196.36 67.5591 197.598 67.746C198.836 67.9329 204.531 65.9062 212.784 89.438C221.037 112.97 216.446 117.823 214.39 117.584C212.334 117.344 198.69 112.123 189.859 112.298C181.028 112.473 169.341 115.966 169.341 115.966L160.691 98.7537Z" fill="#B1C8D3"/>
<path d="M147.382 116.322L151.336 115.481L149.192 110.277L145.852 111.947L147.382 116.322Z" fill="#455A64"/>
<path d="M147.844 110.137L149.304 114.53L150.215 116.737C150.809 118.204 151.945 119.386 153.387 120.039C154.829 120.691 156.466 120.764 157.96 120.242L174.004 115.727L167.112 95.4133L151.167 102.136C149.672 102.764 148.484 103.956 147.862 105.454C147.24 106.952 147.233 108.635 147.844 110.137Z" fill="#263238"/>
<path d="M153.598 116.889L158.971 126.415L161.424 125.626L178.204 138.149L182.368 129.084C182.368 129.084 172.603 125.352 170.687 122.005C168.772 118.659 170.792 117.8 170.792 117.8L166.067 112.859L153.598 116.889Z" fill="#263238"/>
<path d="M211.901 89.7877C216.264 102.526 217.537 113.629 214.74 114.587C211.942 115.545 206.131 106.001 201.762 93.2628C197.393 80.5245 196.126 69.4215 198.923 68.4578C201.721 67.4941 207.532 77.0318 211.901 89.7877Z" fill="#263238"/>
<path d="M200.906 85.9927C200.906 85.9927 207.576 82.6811 210.222 91.5179C212.868 100.355 206.104 101.132 206.104 101.132C203.67 96.3543 201.92 91.2579 200.906 85.9927Z" fill="#FAFAFA"/>
<path d="M195.163 75.2164C195.142 75.7691 195.173 76.3225 195.256 76.8693C195.355 77.9265 195.496 79.4625 195.723 81.3549C195.906 82.2933 196.101 83.3135 196.307 84.4154C196.418 84.9644 196.529 85.5368 196.64 86.1208C196.699 86.4129 196.757 86.7107 196.816 87.0145C196.886 87.3123 196.979 87.5985 197.061 87.9139L198.141 91.7161L198.422 92.709C198.515 93.0478 198.661 93.369 198.778 93.7019C199.023 94.3678 199.274 95.0394 199.531 95.7228L200.291 97.7436C200.419 98.0707 200.524 98.4095 200.676 98.7249L201.114 99.6652L202.802 103.245C202.942 103.526 203.065 103.83 203.211 104.081L203.667 104.869L204.537 106.382L206.102 109.074C207.171 110.651 208.07 111.895 208.689 112.76C208.987 113.226 209.327 113.664 209.706 114.068C209.467 113.57 209.185 113.093 208.865 112.643L206.423 108.864L204.928 106.142L204.093 104.641C203.947 104.379 203.801 104.116 203.649 103.853C203.497 103.59 203.392 103.298 203.258 103.012C202.732 101.873 202.177 100.676 201.611 99.4433L201.173 98.5088C201.027 98.1934 200.921 97.8605 200.793 97.5334L200.045 95.5301C199.794 94.8525 199.543 94.1809 199.292 93.5209C199.175 93.1938 199.029 92.8726 198.941 92.5397C198.854 92.2068 198.749 91.8738 198.649 91.5468L197.551 87.7737C197.47 87.4759 197.37 87.1897 197.3 86.886C197.23 86.5822 197.172 86.3019 197.113 86.004C196.991 85.42 196.868 84.8359 196.757 84.3102C196.523 83.2239 196.302 82.2076 196.103 81.279C195.84 79.4217 195.618 77.909 195.466 76.8343C195.407 76.288 195.305 75.7471 195.163 75.2164Z" fill="#263238"/>
<path d="M174.005 115.698C173.774 115.804 173.531 115.88 173.281 115.926L171.295 116.451C169.613 116.883 167.294 117.497 164.736 118.203C162.178 118.91 159.87 119.553 158.183 119.956C157.336 120.166 156.652 120.324 156.173 120.423C155.928 120.485 155.678 120.526 155.426 120.545C155.658 120.441 155.901 120.36 156.15 120.306L158.124 119.722L164.66 117.87C167.212 117.164 169.548 116.58 171.242 116.2C172.089 116.007 172.778 115.861 173.257 115.774C173.503 115.725 173.754 115.7 174.005 115.698Z" fill="#455A64"/>
<path d="M164.546 112.381C164.05 112.66 163.525 112.885 162.981 113.053C161.994 113.421 160.645 113.888 159.085 114.349C157.526 114.811 156.136 115.167 155.114 115.401C154.567 115.557 154.005 115.657 153.438 115.699C153.964 115.486 154.507 115.316 155.061 115.19C156.072 114.904 157.462 114.513 158.998 114.057C160.534 113.602 161.918 113.164 162.911 112.848C163.443 112.649 163.99 112.493 164.546 112.381Z" fill="#455A64"/>
<path d="M162.023 107.742C160.408 108.391 158.756 108.943 157.076 109.395C155.423 109.948 153.74 110.404 152.035 110.762C153.652 110.112 155.306 109.558 156.988 109.103C158.639 108.553 160.32 108.098 162.023 107.742Z" fill="#455A64"/>
<path d="M159.535 103.275C158.174 104.035 156.766 104.706 155.318 105.284C153.913 105.961 152.465 106.546 150.984 107.036C152.341 106.27 153.748 105.597 155.195 105.021C156.601 104.342 158.051 103.759 159.535 103.275Z" fill="#455A64"/>
<path d="M141.481 153.539L131.739 137.097L106.548 136.058V138.347C106.548 138.347 99.6327 145.309 97.4016 154.788C95.7136 161.967 102.816 189.359 104.813 198.856C107.266 210.537 110.654 225.302 110.654 225.302C110.146 227.919 106.787 230.039 107.021 233.531L163.009 232.918L160.13 221.57L141.481 153.539Z" fill="#B1C8D3"/>
<path d="M160.908 225.921C160.908 226.009 149.765 226.073 136.022 226.073C122.279 226.073 111.141 226.009 111.141 225.921C111.141 225.834 122.279 225.769 136.022 225.769C149.765 225.769 160.908 225.839 160.908 225.921Z" fill="white"/>
<path d="M157.035 211.856C157.035 211.944 145.996 212.014 132.382 212.014C118.767 212.014 107.723 211.944 107.723 211.856C107.723 211.769 118.761 211.705 132.382 211.705C146.002 211.705 157.035 211.792 157.035 211.856Z" fill="white"/>
<path d="M153.239 196.607C153.239 196.688 142.434 196.759 129.106 196.759C115.778 196.759 104.973 196.671 104.973 196.607C104.973 196.542 115.772 196.455 129.1 196.455C142.428 196.455 153.239 196.519 153.239 196.607Z" fill="white"/>
<path d="M150.58 181.241C150.58 181.323 139.448 181.393 125.723 181.393C111.997 181.393 100.871 181.323 100.871 181.241C100.871 181.159 111.997 181.089 125.723 181.089C139.448 181.089 150.58 181.154 150.58 181.241Z" fill="white"/>
<path d="M144.689 162.177C144.689 162.259 134.176 162.329 121.169 162.329C108.162 162.329 97.6484 162.259 97.6484 162.177C97.6484 162.095 108.162 162.019 121.169 162.019C134.176 162.019 144.689 162.089 144.689 162.177Z" fill="white"/>
<path d="M136.681 144.69C136.681 144.772 128.907 144.842 119.311 144.842C109.715 144.842 101.941 144.772 101.941 144.69C101.941 144.608 109.715 144.538 119.311 144.538C128.907 144.538 136.681 144.632 136.681 144.69Z" fill="white"/>
<path opacity="0.3" d="M104.57 163.677C107.022 167.793 110.115 171.49 113.734 174.628C119.359 179.301 136.472 187.676 136.472 187.676L137.903 184.721L150.67 187.705L148.334 179.844L104.57 163.677Z" fill="black"/>
<path d="M164.636 142.939L160.18 167.142L122.006 148.996L115.855 170.524C130.86 177.86 161.231 190.073 165.139 189.722C170.699 189.22 174.542 185.897 176.271 177.755C177.345 172.714 176.855 138.915 176.855 138.915L164.636 142.939Z" fill="#C17560"/>
<path d="M124.5 145.741C124.5 145.741 110.225 136.922 103.999 148.037C99.5486 158.877 104.472 167.533 115.464 172.906C120.762 175.499 127.981 178.7 135.27 181.743L145.894 158.164L124.5 145.741Z" fill="#B1C8D3"/>
<path d="M124.497 145.742C124.497 145.742 124.638 145.807 124.894 145.953L126.028 146.589L130.338 149.054L145.956 158.06L146.049 158.119L146.002 158.218L135.408 181.802L135.349 181.937L135.215 181.878C131.477 180.325 127.622 178.666 123.697 176.914C121.964 176.135 120.253 175.356 118.563 174.578C116.881 173.789 115.222 173.001 113.628 172.13C112.849 171.683 112.08 171.213 111.321 170.723C110.597 170.197 109.849 169.718 109.189 169.134C107.84 168.051 106.627 166.81 105.574 165.437L104.85 164.397C104.615 164.053 104.402 163.694 104.213 163.323C103.814 162.604 103.467 161.859 103.173 161.092C103.039 160.712 102.94 160.315 102.823 159.923L102.653 159.339C102.607 159.141 102.583 158.948 102.542 158.755C102.478 158.37 102.408 157.979 102.344 157.587C102.28 157.196 102.297 156.816 102.274 156.419C102.232 155.662 102.245 154.902 102.315 154.147C102.373 153.405 102.531 152.681 102.636 151.969C102.741 151.256 102.992 150.578 103.185 149.907C103.378 149.235 103.658 148.604 103.886 147.974C104.715 146.465 105.868 145.159 107.262 144.148C108.537 143.285 109.987 142.714 111.508 142.478C113.952 142.181 116.432 142.422 118.774 143.184C120.258 143.645 121.7 144.231 123.084 144.936C123.557 145.182 123.907 145.38 124.147 145.521C124.386 145.661 124.491 145.742 124.491 145.742L124.129 145.55C123.89 145.421 123.545 145.234 123.049 145.001C121.659 144.322 120.215 143.76 118.733 143.319C116.41 142.581 113.954 142.359 111.537 142.67C110.047 142.907 108.628 143.474 107.384 144.329C106.022 145.327 104.897 146.613 104.09 148.096C103.868 148.727 103.635 149.364 103.401 150.018C103.167 150.672 103.045 151.361 102.87 152.05C102.694 152.74 102.618 153.47 102.56 154.206C102.496 154.949 102.484 155.697 102.525 156.442C102.525 156.816 102.566 157.202 102.601 157.611C102.636 158.019 102.729 158.37 102.799 158.75C102.835 158.942 102.858 159.135 102.905 159.334L103.074 159.918C103.191 160.297 103.284 160.683 103.424 161.057C103.712 161.81 104.054 162.542 104.447 163.247C104.636 163.61 104.844 163.963 105.071 164.304L105.79 165.32C106.831 166.674 108.031 167.898 109.364 168.965C110.04 169.524 110.744 170.048 111.473 170.536C112.213 171.023 112.976 171.486 113.762 171.926C115.339 172.784 116.998 173.579 118.68 174.361C120.362 175.144 122.079 175.933 123.814 176.698C127.727 178.45 131.582 180.109 135.314 181.668L135.121 181.744C139.087 172.983 142.714 164.911 145.769 158.183L145.821 158.335L130.256 149.235L125.998 146.648L124.889 145.982C124.626 145.859 124.497 145.742 124.497 145.742Z" fill="#263238"/>
<path d="M164.061 147.085L164.92 138.067C164.92 138.067 161.474 131.128 161.544 130.433C161.614 129.738 161.813 125.912 161.813 125.912L170.428 118.156C170.428 118.156 173.219 118.156 173.289 120.919C173.289 120.919 175.97 120.335 176.011 123.57C176.011 123.57 178.932 123.675 178.99 126.029C178.99 126.029 180.742 125.796 180.684 128.254C180.637 130.007 179.866 136.788 179.866 136.788L176.262 143.055L175.964 149.321L164.061 147.085Z" fill="#C17560"/>
<path d="M164.956 175.985C164.857 176.02 164.22 173.829 162.918 171.376C161.615 168.923 160.103 167.206 160.179 167.142C160.564 167.459 160.908 167.824 161.201 168.228C161.954 169.165 162.619 170.17 163.186 171.23C163.749 172.291 164.218 173.399 164.588 174.542C164.766 175.007 164.89 175.491 164.956 175.985Z" fill="#7C4236"/>
<path d="M115.854 142.745C115.753 143.031 115.626 143.306 115.475 143.569C115.212 144.089 114.821 144.83 114.307 145.742C113.32 147.57 111.912 150.069 110.341 152.815L106.293 159.823L105.067 161.949C104.925 162.216 104.763 162.472 104.582 162.714C104.684 162.429 104.811 162.153 104.962 161.891C105.224 161.377 105.616 160.629 106.13 159.718C107.117 157.89 108.519 155.39 110.096 152.645C111.673 149.9 113.08 147.465 114.137 145.636C114.64 144.778 115.054 144.059 115.37 143.51C115.509 143.242 115.671 142.986 115.854 142.745Z" fill="white"/>
<path d="M127.495 147.845C127.476 147.936 127.444 148.024 127.402 148.108L127.081 148.838C126.794 149.474 126.374 150.38 125.831 151.495C124.756 153.726 123.22 156.781 121.421 160.104C119.622 163.427 117.917 166.389 116.632 168.509C115.989 169.566 115.464 170.419 115.09 171.003L114.658 171.674C114.608 171.753 114.551 171.828 114.488 171.896C114.488 171.896 114.517 171.803 114.605 171.639L114.991 170.944L116.445 168.398C117.677 166.254 119.365 163.276 121.152 159.958C122.94 156.641 124.517 153.604 125.638 151.396L126.976 148.791L127.343 148.084C127.383 147.998 127.434 147.917 127.495 147.845Z" fill="white"/>
<path d="M140.52 155.134C140.424 155.465 140.305 155.789 140.163 156.103C139.924 156.687 139.55 157.598 139.071 158.679C138.108 160.834 136.682 163.778 134.924 166.932C133.166 170.085 131.42 172.842 130.083 174.799C129.417 175.774 128.862 176.551 128.465 177.083C128.275 177.368 128.062 177.638 127.828 177.889C127.985 177.584 128.167 177.293 128.371 177.018L129.902 174.682C131.186 172.702 132.904 169.934 134.662 166.791C136.42 163.649 137.862 160.723 138.873 158.615L140.041 156.08C140.172 155.751 140.332 155.434 140.52 155.134Z" fill="white"/>
<path d="M106.578 244.342L107.793 233.531L161.205 232.941L162.566 244.342H106.578Z" fill="#263238"/>
<path d="M172.725 243.396C172.725 243.478 156.272 243.548 135.976 243.548C115.68 243.548 99.2266 243.478 99.2266 243.396C99.2266 243.314 115.68 243.244 135.976 243.244C156.272 243.244 172.725 243.302 172.725 243.396Z" fill="#455A64"/>
<path d="M142.954 54.7499H123.09C122.432 54.7499 121.898 55.2833 121.898 55.9414V56.7999C121.898 57.458 122.432 57.9914 123.09 57.9914H142.954C143.612 57.9914 144.145 57.458 144.145 56.7999V55.9414C144.145 55.2833 143.612 54.7499 142.954 54.7499Z" fill="#455A64"/>
<path d="M149.544 56.3736C149.544 56.6947 149.449 57.0086 149.271 57.2756C149.092 57.5427 148.839 57.7508 148.542 57.8737C148.245 57.9966 147.919 58.0287 147.604 57.9661C147.289 57.9034 147 57.7488 146.772 57.5217C146.545 57.2946 146.391 57.0053 146.328 56.6903C146.265 56.3754 146.298 56.0489 146.42 55.7522C146.543 55.4555 146.751 55.2019 147.018 55.0235C147.286 54.8451 147.599 54.7499 147.921 54.7499C148.134 54.7499 148.345 54.7919 148.542 54.8735C148.739 54.9551 148.918 55.0747 149.069 55.2255C149.219 55.3762 149.339 55.5552 149.421 55.7522C149.502 55.9492 149.544 56.1603 149.544 56.3736Z" fill="#455A64"/>
<path d="M82.2423 79.9127H83.5564V107.013H82.2423C81.2819 107.013 80.3608 106.632 79.6817 105.953C79.0026 105.273 78.6211 104.352 78.6211 103.392V83.5339C78.6211 83.0584 78.7148 82.5875 78.8967 82.1481C79.0787 81.7088 79.3455 81.3096 79.6817 80.9733C80.018 80.6371 80.4172 80.3704 80.8565 80.1884C81.2958 80.0064 81.7667 79.9127 82.2423 79.9127Z" fill="#263238"/>
<path d="M81.9141 119.29H83.2283V146.39H81.9141C80.9537 146.39 80.0327 146.008 79.3536 145.329C78.6745 144.65 78.293 143.729 78.293 142.769V122.911C78.293 121.95 78.6745 121.029 79.3536 120.35C80.0327 119.671 80.9537 119.29 81.9141 119.29Z" fill="#263238"/>
<path d="M82.0073 159.454C81.9197 159.454 81.8555 139.783 81.8555 115.521C81.8555 91.2595 81.9197 71.5825 82.0073 71.5825C82.0949 71.5825 82.1592 91.2537 82.1592 115.521C82.1592 139.789 82.0891 159.454 82.0073 159.454Z" fill="#455A64"/>
</svg>
